<?xml version="1.0" encoding="utf-8"?>
<!-- Generator: Adobe Illustrator 19.1.0, SVG Export Plug-In . SVG Version: 6.00 Build 0)  -->
<svg version="1.1" id="Layer_1" xmlns="http://www.w3.org/2000/svg" xmlns:xlink="http://www.w3.org/1999/xlink" x="0px" y="0px"
	 viewBox="0 236.9 595.3 371" style="enable-background:new 0 236.9 595.3 371;" xml:space="preserve">
<style type="text/css">
	.st0{fill:#1D1D1B;}
</style>
<g id="Crest">
	<g>
		<path class="st0" d="M240.9,457.1c-0.2,0.4-0.4,0.7-0.9,0.9"/>
		<path class="st0" d="M248.9,395.2c0.9,0,1.8-0.7,1.8-1.8c0-1.1-0.7-1.8-1.8-1.8c-0.9,0-1.5,0.7-1.5,1.8
			C247.4,394.5,247.8,395.2,248.9,395.2L248.9,395.2z"/>
		<path class="st0" d="M325.6,325.1L325.6,325.1h-59.7l0,0l0,0v48.2c0,4.6,2,8.6,4.6,9.9l23,13.7c0.4,0.7,1.3,0.9,2,0.9
			c0.7,0,1.3-0.2,1.8-0.7l23.4-13.9c2.7-1.3,4.6-5.3,4.6-9.9L325.6,325.1L325.6,325.1L325.6,325.1z M285.8,339h-5.1v-12.4h5.1V339
			L285.8,339z M282.1,343.5l0.7-0.7l-0.4-0.9h0.9l0.7-1.1l0.7,1.1h0.9l-0.4,0.9l0.7,0.7l-0.9,0.2v1.1l-0.9-0.7l-0.9,0.7v-1.1
			L282.1,343.5L282.1,343.5z M267.5,358.7V347h6.2v11.7H267.5L267.5,358.7z M268.6,341.9h0.9l0.7-1.1l0.7,1.1h0.9l-0.4,0.9l0.7,0.7
			l-0.9,0.2v1.1l-0.9-0.7l-0.9,0.7v-1.1l-0.9-0.2l0.7-0.7L268.6,341.9L268.6,341.9z M275.6,353.9h0.9l0.7-1.1l0.7,1.1h0.9l-0.4,0.9
			l0.7,0.7l-0.9,0.2v1.1l-0.9-0.7l-0.9,0.7v-1.1l-0.9-0.2l0.7-0.7L275.6,353.9L275.6,353.9z M279.8,344.4c0-0.2-0.4-0.4-0.7-0.4
			c-0.7,0-0.9,0.9-1.3,0.9c-0.4,0-0.7,0-0.7-0.4c0-0.2,0.7-0.7,0.9-0.9c-4,0-4,1.8-4.6,1.8c-1.1,0,0.9-1.8,1.3-2.4
			c-0.9-0.2-1.3-1.1-2-1.5c0.4-0.7,0.7-0.2,1.1,0c0-0.4,0.2-0.9,1.1-0.9c1.8,0,1.3,1.8,1.5,1.8c0.2,0,0-1.8,1.1-1.8
			c1.8,0,3.8,4.4,2,4.4C279.2,345,279.8,344.4,279.8,344.4L279.8,344.4z M275.4,331.5l0.7-0.7l-0.4-0.9h0.9l0.7-1.1l0.7,1.1h0.9
			l-0.4,0.9l0.7,0.7l-0.9,0.2v1.1l-0.9-0.7l-0.9,0.7v-1.1L275.4,331.5L275.4,331.5z M273.9,326.9v12.4h-6.4v-12.4H273.9L273.9,326.9
			z M285.8,390.6l-14.4-8.6c-2.4-1.5-3.5-4.4-4-8v-13.5h18.1v30.1H285.8z M280.5,358.7V347h5.1v11.7H280.5L280.5,358.7z
			 M304.2,391.4l-6.6,4h-0.2c-0.4,0.4-1.1,0.7-1.8,0.7s-1.3-0.2-1.8-0.7l-6.6-4v-30.9h16.8v30.9H304.2z M304.2,358.7h-16.8v-31.8
			h16.8V358.7L304.2,358.7z M323.8,374c-0.2,3.5-1.5,6.4-4,8l-14.4,8.6v-30.1h18.1V374H323.8z M323.8,358.7h-18.1v-31.8h18.1V358.7
			L323.8,358.7z"/>
		<path class="st0" d="M284.7,371.5c0-0.2-2.2,0.7-1.5,0.7c0-0.7,1.3-2,1.8-2.4c0-0.7-1.1,0-2,0.4c3.3-4.9,1.3-2.9-0.7-2.4
			c3.1-3.3,2.2-3.3,0-2.2c1.8-1.3,2.2-3.1,1.8-3.5c-1.5,2.2-3.1,1.8-3.1,4c0,1.3-0.4,3.5-1.1,4.2c-0.9,0.9-0.2-3.5-2.4-3.5
			c-0.7,0-2.4,0-3.1,0.9c0.4,0,1.1,1.1,1.1,1.8c0,0.4,0.4,1.8-0.4,1.8c-0.9,0-1.8-1.8-1.8-2.4c0-0.9,0-0.7,0-1.8
			c0-2-3.1-4.6-4.4-4.6c0,1.3,1.8,1.8,1.8,3.3c-0.7,0-1.8-1.3-1.8-0.4c0,0.9,1.1,1.1,1.1,1.8c0,0.7-1.3-0.2-1.3,0.4s0.7,0.7,0.9,1.3
			c-0.4-0.2-0.9,0-1.1,0.2c0,0.2,0.2,0.4,0.4,0.7c-0.2,0.2-0.4,0.7-0.4,1.8c0,3.8,2.4,5.5,4.2,5.5c1.3,0,1.1-0.9,1.1-1.3
			c0,0.7,0.7-0.2,0.7,0.9c0,1.1-1.1,0.7-1.1,1.8c0,1.3,2,0,2,1.5c0,1.8-0.2,1.8-0.2,2.4c0,0.4,2-0.7,1.8-0.9
			c0.4,0.2,0.4,1.5,1.3,1.5c0.7,0,0.7-1.5,1.1-1.5c-0.2,0,1.8,1.3,1.8,0.7c0-1.8-0.7-1.1-0.7-2.2s2.4-0.9,2-1.5
			c-0.2-0.4-0.4-0.2-0.9-1.1c0,0.2-2-2.9,0.4-1.3C284.7,377.1,284.9,371.8,284.7,371.5L284.7,371.5z"/>
		<path class="st0" d="M348.4,384.1c1.1,0,2-0.9,2-1.8s-0.9-1.8-2-1.8c-1.1,0-2,0.9-2,1.8C346.6,383.3,347.3,384.1,348.4,384.1
			L348.4,384.1z"/>
		<path class="st0" d="M340.4,388.8c1.1,0,2-0.9,2-1.8c0-0.9-0.9-1.8-2-1.8c-1.1,0-2,0.9-2,1.8C338.4,387.9,339.5,388.8,340.4,388.8
			L340.4,388.8z"/>
		<path class="st0" d="M246,399.6c1.1,0,2-0.9,2-1.8s-0.9-1.8-2-1.8s-2,0.9-2,1.8C244.3,399,245.1,399.6,246,399.6L246,399.6z"/>
		<path class="st0" d="M252.2,400.3c1.1,0,2-0.9,2-1.8s-0.9-1.8-2-1.8c-1.1,0-2,0.9-2,1.8S251.1,400.3,252.2,400.3L252.2,400.3z"/>
		<path class="st0" d="M422.2,317.8c2.9,3.5,3.5,9.1,1.5,13c-1.1,0-0.9-1.5-1.1-2.4c-2-4-3.8-8.8-1.8-13.3
			C422,315.4,421.5,317.2,422.2,317.8L422.2,317.8z"/>
		<path class="st0" d="M172.9,322.7c-0.7,2.4-0.7,6,0,8.2c-0.4,0.4-0.4-0.4-0.9-0.4c-4-2.9-2.2-8.6-3.3-12.8
			c0.2-0.2,0.7-0.4,1.1-0.2C171.5,318.7,172.4,320.5,172.9,322.7L172.9,322.7z"/>
		<path class="st0" d="M431,322.9c0.7,1.1-0.4,2.2-1.3,2.9c-0.9,0.2-2-0.2-2.7-1.1c-0.2-1.1,0.2-2.2,1.3-2.7
			C429.5,321.8,430.6,322,431,322.9L431,322.9z"/>
		<path class="st0" d="M166.4,327.6c-0.2,0.9-0.4,2-1.3,2.2c-0.7,0-1.5,0-2-0.4c-0.7-0.4-0.7-1.5-0.4-2.2c0.4-0.7,1.3-0.9,2-0.9
			C165.3,326.4,166.2,326.7,166.4,327.6L166.4,327.6z"/>
		<path class="st0" d="M435.2,329.3c0.2,0.7,0.2,1.1,0,1.8c-0.7,0.9-1.8,1.3-2.9,0.9c-0.7-0.4-0.9-1.1-1.1-1.8
			c0.2-0.9,1.1-1.5,1.8-2C433.9,328.2,434.6,328.9,435.2,329.3L435.2,329.3z"/>
		<path class="st0" d="M429.3,329.3c0.9,0.4,0.2,1.5,0,2c-0.4,0.4-1.3,1.3-2.2,1.1c-0.4-0.4-1.1-0.4-1.3-1.3c0-1.1,0.4-2,1.5-2.4
			C428.2,328.7,428.6,329.1,429.3,329.3L429.3,329.3z"/>
		<path class="st0" d="M421.8,331.1c0,1.1,0,2.7-1.3,2.9c-1.3,0.4-2-0.7-2.4-1.5c0-1.1,0.4-2,1.5-2.4
			C420.4,329.8,421.1,330.4,421.8,331.1L421.8,331.1z"/>
		<path class="st0" d="M177.7,331.5c0.2,1.1-0.7,1.8-1.3,2.2c-0.7,0.2-1.8-0.4-2-1.1c-0.7-0.7,0.2-1.3,0.4-2
			C176,329.5,177.5,330.4,177.7,331.5L177.7,331.5z"/>
		<path class="st0" d="M171.5,331.8c0,0.9-0.4,1.8-1.1,2c-0.9,0.2-1.8-0.2-2-0.9c-0.4-1.1,0-2,0.9-2.4
			C170.4,330,171.1,331.1,171.5,331.8L171.5,331.8z"/>
		<path class="st0" d="M396.6,332.2c1.1,2.2,1.8,4.9,2,7.5c-0.4,2,0.2,4.6-1.1,6c-1.5-0.4-1.5-2.2-2.4-3.3c-1.8-3.8-0.2-8,0.4-11.5
			C396.1,330.6,396.1,331.8,396.6,332.2L396.6,332.2z"/>
		<path class="st0" d="M166.7,333.5c0.2,1.3-0.7,2-1.3,2.7c-1.3,0.2-2-0.7-2.7-1.5c0-1.1,0.4-2,1.3-2.4
			C165.1,332,166.2,332.6,166.7,333.5L166.7,333.5z"/>
		<path class="st0" d="M412.9,336.6c1.3,3.1,1.5,6.6,0.4,10.2l-0.7,0.4c-1.5-2.9-3.5-5.5-4.2-8.4c0-2.2,0.4-4.2,1.3-6
			c0.7-0.4,1.1,0,1.5,0.7C411.4,334.6,411.8,336,412.9,336.6L412.9,336.6z"/>
		<path class="st0" d="M426,334.6c0,1.1-0.4,2.2-1.5,2.4c-1.1,0.2-2,0-2.4-1.3c-0.2-1.1,0.2-2,1.1-2.4
			C424.4,332.9,425.5,333.7,426,334.6L426,334.6z"/>
		<path class="st0" d="M171.8,337.9c0,0.9-0.7,1.8-1.5,2c-0.9,0.7-1.5-0.4-2.2-0.7c-0.2-0.9-0.4-1.5,0-2.4c0.2-0.7,1.1-0.7,1.8-0.9
			C170.6,336.4,171.5,336.8,171.8,337.9L171.8,337.9z"/>
		<path class="st0" d="M176.2,337.3c0.4,1.1-0.7,1.5-1.1,2c-1.3,0.4-1.8-0.4-2.4-1.3c-0.2-1.1,0.4-1.8,1.1-2.2
			C175.1,335.5,175.7,336.4,176.2,337.3L176.2,337.3z"/>
		<path class="st0" d="M429.1,337.1c0,1.3-2.2,2.7-2.4,4.2c-1.1,2.9-3.5,4.9-6.4,6c-0.7,0.4-1.5,1.3-2.4,1.3c-0.2-2,1.8-4,2.9-6
			C422.6,339.7,425.7,337.9,429.1,337.1L429.1,337.1z"/>
		<path class="st0" d="M169.5,341.5c1.5,1.8,2.4,3.3,4.2,4.9c0,0.4-0.2,1.1-0.7,1.1c-5.1-0.2-8.6-5.5-11.1-9.3
			c0.2-1.1,1.8-0.2,2.4-0.2C166.2,339.3,168.2,339.7,169.5,341.5L169.5,341.5z"/>
		<path class="st0" d="M430.4,343c-0.2,4.4-2.4,9.1-6.4,11.3c-1.1,0.4-2.4,1.5-3.5,0.9c2.2-4.4,5.5-8.2,9.1-12.2H430.4L430.4,343z"
			/>
		<path class="st0" d="M410.5,345.9c0.2,1.5-0.4,2.4-1.8,3.1c-1.1,0-1.8-0.9-2.4-1.8c0-1.1,0.4-2,1.5-2.2c0.2-0.2,0.9-0.2,1.3-0.2
			C409.6,345,409.8,345.5,410.5,345.9L410.5,345.9z"/>
		<path class="st0" d="M163.8,347c2,1.3,3.8,3.3,5.5,4.9c-1.3,0.9-3.1,0-4.6,0c-3.5-1.3-6-4.2-9.5-5.3c0-1.1,1.5-0.7,2.2-1.1
			C159.8,345.5,161.6,346.3,163.8,347L163.8,347z"/>
		<path class="st0" d="M275.4,315.8c-5.7-2.2-9.7,3.8-15.7,3.1c-0.7,0.4-0.4,1.1-0.9,1.8c-0.2,0.2-0.9,0-1.1,0
			c-0.2-2.4-1.1-4.9-1.5-7.3c-0.7-1.1-0.2-2.4-0.9-3.5c-3.3-9.1,8.2-2.2,10.4-7.5c2-4.6-3.8-5.1-5.5-8.4v-1.3
			c-1.8-1.8-3.5-2.2-4.4-4.4c0.7-2.7,1.1-5.5,0.2-8.2c0-0.7-0.4-1.5-1.5-1.1c-2,2.7-3.5,4.9-5.3,7.5c-2-1.5-3.8-3.3-6.2-4.6
			c-1.5-0.2-3.1-1.8-4.9-1.1c-0.2,0.7,0,1.1,0.2,1.5c0,4.2,2.2,7.3,5.1,10.4l0.2,1.5c-1.8,4.2-1.3,9.3-1.8,13.9
			c-4.6,11.9-12.4,23.4-22.5,31.8c-6,6.6-13,13.3-13.9,22.5c-0.2,1.5,0.2,3.3-0.9,4.2c-3.5-1.3-6.9-2.9-9.7-5.1
			c-4.9-3.3-11.7-2.9-14.8-9.1c-1.3-2.4,0.2-4.9,1.5-6.6c3.5-3.3,3.1-9.3,1.1-13.5c-0.4,0-0.4,0.4-0.9,0.4
			c-0.2,6.2-5.3,10.4-3.3,17.2c0.4,2,1.5,3.3,2,5.1c-0.7-0.2-1.8-0.2-2.4-0.4c-2.2-0.2-4.6-1.3-7.1-0.9c-4.9,2.2-11.3-0.4-15.3,4
			c-0.7,0-1.5,0.2-1.3,1.1c2.2,0,4.4,0.7,6.9,0.4c3.5,0.7,6-2.4,8.6-3.8h0.7c1.1-1.1,2.9-0.4,4.2-0.7c6.6,0.7,11.7,4,17,7.1v0.4
			c-2,0.9-4.4,1.5-6.6,2.7c-2.4,1.8-5.1,4.2-5.7,7.1c-1.8,2.7,0.4,4.9,1.5,7.1c0,1.1,0.2,2.2,1.1,2.7c3.3-3.5,0.2-8,0.7-12.2
			c0.9-3.1,3.8-4.6,6.9-5.5c6-2.4,10.2,2.2,15,5.1c0,4.9,0.4,9.5-0.4,14.1c-1.5,0.4-3.3,0.9-4.9,0.7c-8.2,0.7-14.6,5.1-22.1,7.7
			c-3.3,1.1-7.3,1.1-10.6,2.2c2.7,0.7,5.3-0.2,8-0.2c10.2-1.5,18.1-9.3,29-8l0.2,0.2c-1.3,2.7-2.9,4.9-4.9,6.9
			c-0.2-1.1-0.4-2-1.5-2.7c-0.9-0.4-1.8,0-2.4,0.9c-0.2,0.4-0.2,1.1,0,1.5c0.4,0.9,1.3,1.1,2.2,1.5c-0.2,0.9-1.3,1.3-2,2.2
			c-2.9,4.9-8.8,2.9-12.4,6.4c-0.4,0.7-2.4,1.1-1.5,2.2c4,0.4,7.7-0.7,10.8-2.7c3.8-4.2,8-8.4,11.7-12.4c0.7,3.3-0.2,6.9-2.2,9.5
			c-0.9-0.4-1.8-1.3-2.9-1.5c-1.1,0.2-1.8,1.3-1.8,2.2c0.4,0.7,0.9,1.5,1.5,2c-3.5,2.4-8,2.7-12.2,4c-7.5,0.9-15,1.5-22.8,1.8
			c-3.5-0.2-7.7,1.1-11.3,0c-4,0.7-8.2-0.4-11.5,1.8c-0.4,0.4,0,1.1,0,1.5c4.9,3.1,11.3,0.7,16.8,1.5h41.1c3.1,0,6-0.2,8.4-1.5
			c5.3-3.1,8.2-8.4,10.8-13.9c1.1-2,1.8-4.2,2.2-6.2c1.1-3.5,4.2-6.2,7.7-6.4c0.4,5.5-0.4,10.8-1.8,15.9c-0.7,3.3-2.9,6.6-1.5,10.2
			c0.2,1.8,2,1.8,3.5,2c12.6-0.2,25.2-0.7,38.5,0.2c2.4,0.4,4.4,1.1,7.1,1.1c0.2-0.2,0.9-0.4,0.7-1.1c-0.2-1.1-1.1-2.7-2.4-2.9
			c-0.2-0.7-1.1-0.4-1.5-0.9c-6.6-3.8-14.6-1.8-22.5-1.8c-4,0.4-8.2,1.1-11.5-1.1c-1.5-2-0.4-8-0.4-8c0-2.4,5.7-18.8,6.4-20.3
			c0.2-1.5,0.9-3.1,0.7-4.9c0.9-2,0.7-4.9,0.7-7.1c0.4-3.3,2-6.4,3.3-9.7c0.7-1.5,1.1-3.3,1.8-4.9c0.7-2,0.9-4,2-5.5
			c3.3,2.2,6.6,2,8.4,6l1.5,8.8c0,0.4,0.4,1.5,1.1,0.9c2.7-1.8,1.8-5.7,1.8-8.4c0.7-3.3-1.8-4.9-2.7-7.7c-0.7-0.4-2-3.1-2-3.1
			c-0.4-2.2-5.5-4-4.4-6.6c0.7-2.4,1.3-4.6,3.5-6c0.4,0.2,0.4,0.4,0.4,0.7l1.3-0.9l0.2-8.8c3.3,0,8.4,0.4,11.9,0.4
			c0.9,0.2,1.8,1.1,2.7,1.1l0.9-1.1l8.4-1.5C281,320,278.7,315.8,275.4,315.8L275.4,315.8z"/>
		<path class="st0" d="M284.5,319.6c0.2,0,0.4,0,0.9-0.2L284.5,319.6L284.5,319.6z"/>
		<path class="st0" d="M193.9,348.8c0,1.3-0.7,2-1.5,2.4c-0.9-0.2-1.5-0.4-2-1.3c-0.4-1.1,0.7-2,1.5-2.4
			C192.5,347.7,193.6,347.9,193.9,348.8L193.9,348.8z"/>
		<path class="st0" d="M187,348.8c0.7,0.7,0.7,1.8,0.4,2.4c-0.7,0.7-1.8,1.1-2.4,0.2c-0.7-0.7-1.3-1.3-0.7-2.2
			C185,348.6,186.3,347.9,187,348.8L187,348.8z"/>
		<path class="st0" d="M332,349.9C332,350.1,332.2,350.1,332,349.9"/>
		<path class="st0" d="M411.4,351.6c0.4,1.1-0.4,2-1.3,2.4c-1.1-0.2-2.4-0.4-2.4-2c0-0.9,0.9-1.3,1.5-1.5
			C410.3,350.3,410.9,351.2,411.4,351.6L411.4,351.6z"/>
		<path class="st0" d="M416.9,351.6c0.2,0.4,1.1,1.3,0.2,2c-0.4,0.2-0.7,0.4-1.1,0.9c-1.1,0.2-2.2-0.2-2.4-1.3
			c-0.2-1.1,0.7-1.8,1.5-2.2C416,350.5,416.5,351.2,416.9,351.6L416.9,351.6z"/>
		<path class="st0" d="M160.9,352.8c-0.4,1.3-1.5,1.8-2.9,1.3c-0.2-0.2-0.7-0.9-0.9-1.3c0-0.7,0.2-1.5,1.1-1.8
			C159.8,351.2,160.7,351.6,160.9,352.8L160.9,352.8z"/>
		<path class="st0" d="M196.1,354.5c0,0.9-1.1,1.5-1.8,2c-1.1,0-1.8-0.7-2.2-1.5c0-0.9,0.4-2,1.3-2
			C194.3,352.5,195.6,353.4,196.1,354.5L196.1,354.5z"/>
		<path class="st0" d="M189.9,353.9c0.2,0.2,0.7,1.1,0.2,1.8c-0.7,0.4-1.5,1.5-2.7,0.9c-0.7-0.4-1.3-0.9-1.1-2
			c0.4-0.4,0.9-1.1,1.5-1.3C188.8,353,189.2,353.4,189.9,353.9L189.9,353.9z"/>
		<path class="st0" d="M432.8,355.2c0,0.9-0.9,1.8-1.3,2c-0.9,0.2-1.8,0-2.2-0.4c-0.7-0.2-0.4-1.1-0.4-1.5c0.4-0.7,1.3-1.1,2-1.3
			C431.7,353.9,432.4,354.5,432.8,355.2L432.8,355.2z"/>
		<path class="st0" d="M439.7,356.1c-0.2,0.9-1.1,1.8-2,2c-0.7,0-1.8-0.2-1.5-1.3c0-0.7,0.4-1.5,0.9-1.8
			C437.9,354.5,439.2,355,439.7,356.1L439.7,356.1z"/>
		<path class="st0" d="M172.9,357.6c0.2,1.3-0.2,2-1.3,2.4c-0.7,0.4-1.5,0-2-0.4c-0.4-0.4-0.9-1.3-0.4-2c0.2-0.9,1.1-0.7,1.8-1.1
			C171.8,356.3,172.4,356.7,172.9,357.6L172.9,357.6z"/>
		<path class="st0" d="M177.9,358.5c0.2,0.9-0.7,1.1-0.9,1.8c-0.4,0.2-1.3,0.7-1.8,0.2c-0.7-0.7-1.5-1.5-0.9-2.4
			C175.3,356.3,177.5,357.2,177.9,358.5L177.9,358.5z"/>
		<path class="st0" d="M426.8,357.8c0,1.1-0.9,1.8-1.5,2.4c-0.9,0.2-1.8-0.4-2-1.3c0-0.9,0.4-1.5,1.1-2
			C425.3,357,426.2,357.2,426.8,357.8L426.8,357.8z"/>
		<path class="st0" d="M435.2,359.6c-0.2,0.9,0,2-1.1,2.7c-0.9,0.2-1.8,0-2.4-0.4c-0.7-0.4-0.7-1.5-0.4-2.2c0.4-0.9,1.5-1.5,2.4-1.3
			C434.4,358.7,434.6,359.4,435.2,359.6L435.2,359.6z"/>
		<path class="st0" d="M168.9,361.8c0.4,0.9-0.4,1.1-0.9,1.5c-0.7,0.4-1.5,0-2-0.2c-0.7-0.4-0.4-1.5-0.2-2
			C166.7,359.4,168.4,360.5,168.9,361.8L168.9,361.8z"/>
		<path class="st0" d="M428.8,363.8c0.4,0,0.2,0.7,0,0.9c-2.4,1.3-6.2,1.5-8.4-0.4c-1.3-1.1-2.9-1.5-4.2-2.2
			c0.4-1.3,2.4-1.3,3.8-1.5C423.1,360.9,425.3,363.8,428.8,363.8L428.8,363.8z"/>
		<path class="st0" d="M174,362.9c0.2,0.9-0.4,1.1-0.7,1.8c-0.4,0.7-1.3,0.4-1.8,0.2c-0.9-0.7-1.3-1.8-0.7-2.7
			C172,361.2,173.3,361.8,174,362.9L174,362.9z"/>
		<path class="st0" d="M183,363.6c0.4,0.9-0.2,1.8-1.1,2.2c-0.7,0.4-1.3-0.2-2-0.2c-0.4-0.7-1.5-1.5-0.4-2.4
			C180.4,361.6,182.4,362.3,183,363.6L183,363.6z"/>
		<path class="st0" d="M303.5,368c-0.2,2-3.8-0.2-3.1,2.4c0.4,2,0.9,4.4,2,6c0.9,1.3,0.4,3.5,0.4,5.3c-0.9,1.5-2.4,2.7-4,3.3
			c-2.9-0.2-7.3,1.5-8.6-2.2c-0.7-1.5-1.8-3.1-1.8-5.1c0.2-0.2,0.7-0.2,0.9-0.4c0-0.7-0.9-1.1-0.7-1.8c3.3-0.7-1.3-3.5,1.5-3.8
			c2.4,2.4,6.2,1.8,8.4,4.4c0.4,0.4,0.9,1.1,1.5,1.3c-0.4-2.4-1.5-5.1-2-7.7c-0.2-1.3,0.2-2.7,1.1-3.5
			C301.1,364.9,302.4,366.9,303.5,368L303.5,368z"/>
		<path class="st0" d="M192.3,367.3c0.2,1.1-0.4,1.8-1.1,2.2c-0.9,0.4-1.5-0.7-1.8-1.1c-0.2-1.1,0.4-1.5,1.1-2
			C191,366.2,191.9,366.5,192.3,367.3L192.3,367.3z"/>
		<path class="st0" d="M256.4,368.2c1.3,4.2,0.9,8.2-1.3,11.7c0,0.9,0.2,2.2-0.9,2c-2.9-4-0.7-9.3,0.4-13.5
			C254.9,367.8,256.2,367.3,256.4,368.2L256.4,368.2z"/>
		<path class="st0" d="M345.7,370.2c1.5,2.9,1.5,6.9,0.2,9.7l-0.9,0.9c-1.1-2.4-2-4.9-2.4-7.5c0.4-2,1.1-3.5,1.3-5.5
			C345.3,367.6,345.3,369.6,345.7,370.2L345.7,370.2z"/>
		<path class="st0" d="M200.3,371.5c-0.7,1.3-2.4,1.5-3.5,2.4c-2.4,2-6.2,2.2-9.3,1.8c2.7-3.8,6.9-6,11.9-4.9
			C199.6,371.1,200,370.9,200.3,371.5L200.3,371.5z"/>
		<path class="st0" d="M157.6,375.3c3.8,2.7,4.9,6.4,7.3,10.2c0.2,0.4,1.3,0.4,0.9,1.3c-0.9,0.7-1.8-0.7-2.9-0.4
			c-4-1.8-6.4-6.2-6.4-10.8C156.5,375.3,157.2,375.3,157.6,375.3L157.6,375.3z"/>
		<path class="st0" d="M341.5,378.4c0,1.1,0,2-0.9,2.4c-1.1,0.2-2-0.2-2.4-1.3c-0.2-0.7,0.2-1.1,0.4-1.8
			C339.5,377.1,341.1,377.5,341.5,378.4L341.5,378.4z"/>
		<path class="st0" d="M385.5,384.1c0-2,0.4-4,0.7-5.7c0.2-0.7,0.4-1.3,0.4-2.2c2.4-3.3,7.5-2.2,11.5-2c1.5,0.9,3.5,0.7,5.3,1.1
			c0.7-0.4,1.8-0.7,2.7-0.4c3.3-1.8,1.1-5.7,1.3-8.6l-1.3-3.1c-0.2-0.7-0.7-1.3-0.9-2c-0.7-0.7-1.1-2-1.8-2.9
			c-1.8-4.6-5.3-7.3-8.2-10.8c-5.3-6.9-13.7-10.8-21.9-13.5c-8.2-2.9-16.6,0.9-23.9,3.5c-2.2-0.7-3.5-2.4-4-4.4c-0.4-4,0.4-8,2-11.1
			c0.2-2.7,2-4.6,2.9-7.1c1.8-6,3.8-11.7,4.2-18.1c0.2-4-2.7-6.6-5.5-8.2c-2-0.4-4.2-0.4-5.7,1.1c-1.3,2.9-4.2,4.6-6.9,6.2
			c-0.2,1.8,2,0.7,2.7,1.3c2.2,0.4,4.9-0.2,6.9,1.1c0.2,4.2-2.2,7.7-4.4,10.8c-3.5,5.3-7.3,10.6-9.5,16.4l-0.4-1.1l0.4,25.6
			c3.3,5.5,7.5,11.7,13.7,13.9c3.3,2.7,7.5,6,11.9,3.5c2.4-0.7,2.7,2.7,3.8,4c1.3,4-1.5,6.6-1.8,10.2l-2.7,5.7
			c-3.1,6.2-6,12.6-10.8,17.7c-1.5,0-2.4,1.8-4,1.8c-0.9,1.1-2.4,0.2-3.5,0.7c-3.3,1.3-7.7,0.4-9.9,3.5c0.2,0.2,0.4,0.4,0.9,0.4
			c6.4,0,13.5,0.4,20.1,0.2c0.9-0.2,1.5-1.1,1.8-2c-0.9-1.8,0.2-3.3,1.1-4.6c0.4-2.4,2.2-4,2.9-6.4c2.2-4.2,4.6-8.4,7.1-12.8
			l3.3-5.3c0.7-1.8,2-4,3.3-6c0.9-0.9,1.3-1.8,1.8-2.9c0-1.1-0.4-1.5-1.1-2.2c0.7-0.7,1.8-0.4,2.9-0.7c2.7,1.5,5.3,4.2,5.7,6.9
			l0.9,2.7l0.4,1.3l-0.2,3.5l0.4,3.3c0.4,5.1-0.4,10.2-0.9,15.3c-1.8,6.2-8.8,5.5-13.7,6.9c-1.3,0.9-3.5,0.4-3.5,2.4
			c6,1.3,13,0.4,19.7,0.4c1.1-0.4,1.3-1.3,1.8-2.2c0.2-1.3,1.5-2.4,1.1-4c-1.1-1.5,0-3.8-0.4-5.7c0.2-0.4,0.2-1.3,0-2
			c0.9-3.1,0.7-6.6,1.3-9.7L385.5,384.1L385.5,384.1z"/>
		<path class="st0" d="M436.8,379.9c-3.3,4.6-6.9,10.2-12.6,11.7c-0.4,0-0.9,0.2-1.1-0.2c3.5-3.8,5.5-9.7,10.8-11.1
			C434.8,379.9,435.9,379.5,436.8,379.9L436.8,379.9z"/>
		<path class="st0" d="M152.5,385c-0.4,0.4,0,1.3-1.1,1.5c-0.9,0.4-1.8,0-2.2-0.9c-0.4-1.1,0.4-2,1.3-2.2
			C151.4,383.7,152.3,384.1,152.5,385L152.5,385z"/>
		<path class="st0" d="M182.4,386.6c0.2,0.9-0.7,0.9-1.3,1.1c-4.4,1.5-8.8,0-11.9-3.1c0-0.4,0-0.9,0.4-0.9
			C174,384.8,178.8,383.9,182.4,386.6L182.4,386.6z"/>
		<path class="st0" d="M158,385.2c0.2,0.4,0.2,1.1,0.2,1.5c-0.7,0.9-1.5,1.1-2.7,0.9c-0.7-0.2-0.9-0.7-1.3-1.3c0-1.1,0.9-1.8,1.8-2
			C156.9,384.6,157.6,384.6,158,385.2L158,385.2z"/>
		<path class="st0" d="M255.8,385.7c0.2,0.9-0.7,1.5-1.3,2c-0.9,0.2-1.8-0.2-2.2-0.9c-0.2-0.7,0-1.8,0.7-2
			C254,384.6,255.5,384.8,255.8,385.7L255.8,385.7z"/>
		<path class="st0" d="M440.8,386.1c0.2,1.1-0.7,1.5-1.3,2.2c-0.7,0.2-1.3,0-2-0.2c0-0.4-0.7-0.9-0.4-1.8c0.4-0.9,1.3-1.3,2.4-1.3
			C439.7,385.5,440.1,385.7,440.8,386.1L440.8,386.1z"/>
		<path class="st0" d="M447.6,385.7c0.7,0.9,0,1.8-0.4,2.4s-1.3,0.9-1.8,0.7c-0.7-0.7-1.5-0.9-1.5-2c0-0.9,0.9-1.5,1.5-1.8
			C446.3,384.6,446.7,385.7,447.6,385.7L447.6,385.7z"/>
		<path class="st0" d="M148.1,388.8c0,0.7-0.4,1.1-0.7,1.8c-0.4,0.2-1.1,0.7-1.8,0.4c-0.7-0.2-1.3-0.9-1.5-1.8
			c0.2-0.9,0.9-1.8,1.8-2C146.8,387.5,147.7,387.9,148.1,388.8L148.1,388.8z"/>
		<path class="st0" d="M367.4,388.8c0.2,0.4,0,0.9,0,1.3c-0.7,0.9-1.5,1.5-2.4,1.1c-0.7-0.7-1.3-1.3-1.1-2.2
			C364.7,387.9,366.5,387.5,367.4,388.8L367.4,388.8z"/>
		<path class="st0" d="M164.9,390.3c-0.2,0.7-0.4,1.5-1.5,1.5c-0.9,0-1.3-0.7-1.8-1.1c0-0.9,0-2,0.9-2.4
			C163.6,387.9,164.9,389,164.9,390.3L164.9,390.3z"/>
		<path class="st0" d="M154.7,390.6c0.2,1.1-0.4,1.8-1.1,2.2c-1.3,0.4-2.2-0.4-2.9-1.5c0-0.9,0.9-2,1.8-2.4
			C153.8,389,154.3,390.1,154.7,390.6L154.7,390.6z"/>
		<path class="st0" d="M374.2,390.3c0.2,1.1,0,2-1.1,2.4c-1.3,0.4-2.2-0.7-2.9-1.5c0.4-0.9,0.7-2,1.8-2.2
			C373.1,389.2,373.8,389.7,374.2,390.3L374.2,390.3z"/>
		<path class="st0" d="M159.8,390.8c0.2,0.7-0.2,1.1-0.4,1.5c-0.4,0-0.9,0.7-1.5,0.4c-0.4-0.4-1.3-0.7-1.3-1.5c0-1.1,0.7-1.5,1.3-2
			C158.7,389.2,159.4,389.9,159.8,390.8L159.8,390.8z"/>
		<path class="st0" d="M435,391.7c-0.2,0.9-0.9,1.3-1.8,1.8c-0.9,0.2-1.3-0.4-2-0.9c-0.4-0.4-0.2-1.3,0-2
			C432.1,388.8,435,389.7,435,391.7L435,391.7z"/>
		<path class="st0" d="M443,392.1c-0.2,1.1-1.5,1.8-2.4,1.8c-0.9-0.4-2-1.1-1.3-2.4c0.4-0.4,0.7-0.9,1.3-0.9
			C441.7,390.1,442.5,391,443,392.1L443,392.1z"/>
		<path class="st0" d="M393.5,392.8c0.4,1.3-0.7,1.8-1.5,2.4c-0.7,0-1.3-0.4-2-0.9c-0.2-1.1,0.2-2.2,1.5-2.7
			C392.4,391.7,392.8,392.1,393.5,392.8L393.5,392.8z"/>
		<path class="st0" d="M364.7,394.1c0.4,0.2,0.2,0.9,0.2,1.3c-0.7,0.4-1.5,1.5-2.4,0.9c-0.7-0.4-1.3-1.1-1.1-2
			C362.1,393,364.3,393,364.7,394.1L364.7,394.1z"/>
		<path class="st0" d="M370.7,394.8c0,0.9,0,1.3-0.9,1.8c-0.7,0.7-1.5,0-2.2-0.2c-0.2-0.4-0.4-1.1,0-1.5c0.2-0.4,0.9-0.7,1.3-0.9
			C369.4,393.9,370.3,393.9,370.7,394.8L370.7,394.8z"/>
		<path class="st0" d="M193.9,395c0.7,0.7,0,1.3-0.2,2c-0.4,0.7-1.8,1.1-2.7,0.4c-1.1-0.4-0.9-1.8-0.7-2.7c0.7-0.2,0.7-0.9,1.5-0.9
			C192.8,393.9,193.2,394.3,193.9,395L193.9,395z"/>
		<path class="st0" d="M404.5,395.2c0.2,1.1-0.9,1.5-1.5,1.8c-1.3,0.4-1.8-0.4-2.4-1.3c0-0.7,0.7-1.1,0.9-1.5
			C403,393.4,403.9,394.5,404.5,395.2L404.5,395.2z"/>
		<path class="st0" d="M399,395.2c0.4,1.1-0.7,1.5-1.1,2c-0.7,0.2-1.8,0.2-2.2-0.4c-0.4-0.2-0.4-0.9-0.4-1.5
			c0.7-0.4,0.9-1.1,1.8-1.3C397.7,394.1,398.5,394.5,399,395.2L399,395.2z"/>
		<path class="st0" d="M445.9,396.5c0.2,1.5-1.8,0.7-2.4,1.1c-4.4,2.7-9.9,0.7-14.1-0.9c0.2-1.3,1.8-0.9,2.7-1.3
			c4.4-2.9,9.1,0.7,13.5,0.9L445.9,396.5L445.9,396.5z"/>
		<path class="st0" d="M160.9,395.2l-0.4,0.7c-3.8,2.2-8.8,4-13.5,2.4l-0.4-0.7c3.8-2.9,9.1-3.5,13.9-2.9L160.9,395.2L160.9,395.2z"
			/>
		<path class="st0" d="M415.1,396.1c0,0.9-0.4,1.5-1.1,2c-1.1,0.2-2.4,0-2.7-1.1c-0.2-0.9,0.4-1.8,1.3-2
			C413.6,395,414.7,395,415.1,396.1L415.1,396.1z"/>
		<path class="st0" d="M179.5,396.5c-0.4,0.9-0.2,1.8-1.3,2c-1.1,0.4-2.2-0.4-2.7-1.3c-0.2-1.1,0.4-1.5,1.1-2
			C177.9,394.5,178.8,395.4,179.5,396.5L179.5,396.5z"/>
		<path class="st0" d="M172.2,397c0.2,0.7-0.2,1.1-0.4,1.8c-0.4,0.7-1.5,0.4-2,0.2c-0.7-0.7-1.5-1.3-1.1-2.4
			c0.7-0.4,0.9-0.9,1.8-1.1C170.9,395.4,172,395.9,172.2,397L172.2,397z"/>
		<path class="st0" d="M422.4,399.4c0,0.9-0.9,1.8-1.8,2c-0.9,0-1.5-0.4-2-1.1c-0.2-0.7-0.2-1.5,0.4-2c0.2-0.2,0.9-0.2,1.3-0.4
			C421.5,397.8,422.2,398.5,422.4,399.4L422.4,399.4z"/>
		<path class="st0" d="M164.5,398.3c0.2,0.9-0.4,1.1-0.4,1.8c-0.2,1.8-1.5,2.9-2.2,4.4c-2,2.4-4.9,2.4-7.5,3.1l-0.4-0.9
			c3.1-4,6.2-6.9,10.6-8.8L164.5,398.3L164.5,398.3z"/>
		<path class="st0" d="M417.3,400.5c0.2,1.3-0.9,1.5-1.5,2c-0.9,0-1.8-0.4-2-1.3c-0.2-1.1,0.7-1.5,1.3-2
			C416,399,416.9,399.6,417.3,400.5L417.3,400.5z"/>
		<path class="st0" d="M176.4,400.5c0,0.2,0,0.4,0.2,0.4c0,1.1-0.9,1.5-1.5,2c-0.9,0-1.8-0.2-2.2-1.1c-0.4-0.9,0-2,1.1-2.4
			C174.8,399.4,176,399.6,176.4,400.5L176.4,400.5z"/>
		<path class="st0" d="M436.3,403.6c1.1,0,1.3-1.3,2.4-1.5c1.1-0.2,2,0.4,2.4,1.1c0.4,1.3-0.4,2-1.3,2.4c-0.7,0.4-2.2-0.7-2.2,0.7
			c0.7,0.4,1.3,1.3,1.5,2c-0.2,0.4-0.9,0.2-1.3,0c-3.1-1.3-6.2-3.3-7.5-6.4c-0.4-0.9-2.4-1.8-1.3-2.4
			C432.4,399.4,434.8,401.8,436.3,403.6L436.3,403.6z"/>
		<path class="st0" d="M446.5,400.5c0.4,0.4,0.2,1.5,0,2c-0.4,1.1-2,0.7-3.1,0.4c-0.4-0.4-1.1-1.1-0.9-2c0.4-0.7,0.9-1.1,1.5-1.3
			C445,399.4,445.6,399.8,446.5,400.5L446.5,400.5z"/>
		<path class="st0" d="M408.7,406c0.9,1.1,1.8,2.9,2.2,4.2c-0.2,0.2-0.7,0.2-0.9,0.2c-3.5-2-8.2-4.2-9.5-8.4
			c-0.2-0.4-1.1-0.9-1.1-1.8c2.7-0.4,5.3,1.5,7.3,2.9C407.4,404.5,408.3,404.9,408.7,406L408.7,406z"/>
		<path class="st0" d="M170.6,402c0.4,0.9-0.4,1.8-0.9,2c-1.1,0.2-1.8-0.2-2.4-0.9c-0.7-1.1,0.7-2,1.5-2.4
			C169.5,400.7,170,401.6,170.6,402L170.6,402z"/>
		<path class="st0" d="M421.8,404.5c0,0.7-0.7,1.1-1.1,1.5c-0.9,0-1.8,0.4-2.4-0.2c-0.2-0.4-0.7-1.3,0-2
			C419.3,402.3,420.9,403.4,421.8,404.5L421.8,404.5z"/>
		<path class="st0" d="M447.6,406c0.2,1.3-0.7,2-1.5,2.7c-1.1,0.2-1.8-0.4-2.4-0.9c-0.4-0.7,0-1.3,0-2c0.7-0.7,1.8-1.1,2.7-0.7
			C446.7,405.4,447.2,405.4,447.6,406L447.6,406z"/>
		<path class="st0" d="M375.6,420.4c0,1.3-2.2,0.9-3.3,2c-3.3,1.8-7.1,1.8-10.8,1.5v-0.7C365.2,420.2,370.5,419.1,375.6,420.4
			L375.6,420.4z"/>
		<path class="st0" d="M223.5,425c0,0.9-0.7,1.5-1.5,1.8c-0.7,0-1.5-0.4-1.8-1.1c-0.4-1.3,0.7-1.8,1.3-2.2
			C222.6,423.5,223.3,424.2,223.5,425L223.5,425z"/>
		<path class="st0" d="M373.8,426.1c-0.2,0.9-0.4,2-1.5,2.4c-0.9,0.2-1.5-0.2-2.2-0.7c-0.4-0.4-0.2-1.1-0.2-1.8
			C370.3,424.2,372.9,424.2,373.8,426.1L373.8,426.1z"/>
		<path class="st0" d="M394.6,426.6c-2.7,1.8-5.5,3.8-9.1,3.8H380l-0.4-0.4c3.5-4.2,9.7-4.2,15-3.8V426.6L394.6,426.6z"/>
		<path class="st0" d="M195,429c0,0.9-0.4,1.8-1.3,2c-1.1,0.2-1.8-0.2-2.2-0.9c-0.4-0.9,0-2,0.9-2.4C193.4,427,194.5,428.1,195,429
			L195,429z"/>
		<path class="st0" d="M200.3,430.1c0.2,0.4-0.2,0.9-0.4,1.3c-0.7,0.2-1.5,0.4-2,0c-0.7-0.4-0.9-1.1-0.7-1.8
			c0.2-0.7,0.9-0.4,1.3-0.9C199.2,429,199.8,429.5,200.3,430.1L200.3,430.1z"/>
		<path class="st0" d="M160.3,440.7c-1.1,1.3-2.7-0.2-3.8-0.9c-3.5-2-3.5-6.2-7.3-8.6c0.4-1.3,1.3,0,2,0c0.7,0.4,1.5,0.9,2.2,1.1
			C157.2,434.1,158,437.6,160.3,440.7L160.3,440.7z"/>
		<path class="st0" d="M464,400.1c-1.8-3.1-4.4-4.2-7.7-4.2c-2.7,0.2-4.6,2-5.7,4.2c-0.7,2.2,0.2,4.4,2,5.7c0.7,0.2,1.8,0.2,2-0.4
			c0.4-1.3-0.9-1.3-1.1-2.4c-0.4-1.5,0-2.7,1.1-3.8s2.9-0.4,4-0.4c1.3,0.9,2.4,1.5,3.1,3.1c0.7,1.8,0.7,3.8,0,5.5
			c-1.1,2.7-3.8,4.6-6.4,5.3c-8.6,1.3-103.5,0.9-103.5,0.9c-11.1,1.1-23.9-2-33.4,3.8c-4.4,2-6.6,6.9-7.7,11.3
			c-2.9,2.4-5.7,5.5-8.2,8.2l-0.2-0.2c0.4-2.4,1.8-4.6,2.2-7.3c1.5-2,1.5-4.9,2.7-7.3c4-6.4,7.7-12.8,13.9-17.5
			c2.7-3.5,7.3-2.9,11.1-2.9c4.2,2,9.3,2.7,14.4,2c0.2-0.2,0.2-0.4,0.2-0.7c-1.5-1.3-3.8-2-5.5-3.3c-4.2-2-8.2,0.7-12.6,0.2
			c-0.2-0.2-0.4-0.2-0.2-0.7c4-2.9,8.4-5.1,12.8-6.9c3.5-2,7.5-3.1,11.3-4.4c1.5,0,3.1-1.3,4.4-0.4l5.5-1.5c0.2,0,0.4,0.4,0.9,0.2
			c4.6-1.5,10.6,0,15.9-0.2l0.7,0.7l5.1,1.3c1.8,0.2,2.7,2.4,4.6,2.4c1.1-1.5-1.1-2-1.8-3.1c2.2-0.4,4.9,0,7.1,1.1l-1.1,1.1
			c-0.7,1.1,0.2,2,1.3,2.4c0.7,0.2,1.3-0.2,1.8-0.4c1.3-0.9,0-2,0.2-2.7c7.7,1.3,15,3.3,22.1,6.2c2,0.7,3.8,2,6,2
			c-2.2-2-5.3-3.1-8-4.2c-1.8-1.1-4.2-1.1-5.5-2.7c0.2-0.4,1.1-0.2,1.3-0.7c3.5-0.4,6.6-3.1,9.1-6c0.2-0.7,1.3-0.4,1.3-1.3
			c-0.9-1.1-2.4,0.2-3.8,0.2c-4.4,0.9-6.2,6-10.6,6.9c-5.3-1.3-10.8-2.4-16.1-4c-2.7-0.4-5.3-0.7-7.7-1.8l-5.7-0.4h-10.2
			c0-0.2-0.4-0.2-0.2-0.7c3.8-0.9,7.1-3.1,10.8-4.2l27.9-12.8c2.9-2.7,5.5-5.5,8-8.6c0-0.9-0.4-1.8-1.1-2c-0.7-0.2-1.5-0.2-2,0.4
			c-1.3,0.9,0,2.2,0,3.3c-1.3,1.8-3.3,3.1-4.9,4.2c-0.4,0-28.7,12.8-28.7,12.8c-4.2,1.8-8.4,3.8-12.6,4.6l-6,0.9
			c-0.4,1.3-1.5,2-2.7,2.4c-1.8,0.2-3.1,1.3-4.9,1.3c-13.5,5.3-27.6,10.8-38.2,21.4c0.7-1.3,0.9-2.9,1.1-4.4c-0.2-1.5,0-3.3-1.1-4.6
			c-0.2-0.7-1.1-2.2-0.7-2.9l-1.5,0.9c-0.9,2.2-1.8,6.4-0.9,8.8c0.2,2,1.8,4.2,0.4,5.7c-5.1,6.2-7.7,13.5-11.1,20.3
			c-1.3-0.2-1.8-1.3-2.4-2.4c3.5-4.4,6.4-9.5,7.3-15.3c0.7-0.4,0.2-2,0.9-2.4c-0.2-1.8,0.9-3.3,0-4.6c0.7-2.2-3.1-4.4-0.7-6l-2,0.9
			c-4.4,6,2.4,14.6-2.9,20.3v0.4c-1.5,2-2.2,3.8-4.2,5.1c-2.4-1.1-3.5-4-4.9-6c-2.2-2.2-2.2-6.6-0.9-9.7c0.9-3.1-0.7-5.7-0.9-8.4
			l-1.1-0.7c-2.4,3.3-3.5,8.4-1.5,12.4c1.1,2,1.1,4.4,2.7,6.2c0.9,3.1,2.9,5.1,4.4,7.7c0.4,1.1-0.7,1.3-1.1,1.8
			c-1.1-0.7-0.9-2.4-2-3.1c-3.5-7.3-8-13.3-13.3-19.2c-0.2-0.9-1.1-1.8-0.7-2.9c2-2,2.4-5.5,1.3-8c-0.2-0.4-0.9-1.1-0.7-1.8
			l-1.5-1.3c0.2,3.8-2.2,6.9-1.1,10.8v0.2c-10.8-8.2-22.5-15.3-34.7-21l-0.9,2.7c3.1,0.7,11.1,5.7,11.1,5.7
			c3.5,1.3,7.1,3.5,10.4,5.5c14.1,8,23.4,20.8,29.8,35.4c0,1.1,1.1,2.4,0.4,3.5c-2.2-3.3-5.3-5.3-8-8c-0.7-4.9-3.5-9.7-8-11.7
			c-1.5-2.2-4.9-2.4-7.5-3.3l-38-0.2c-30.7-0.4-59,0.9-89.5,0.4c-4.2-0.4-9.5-2-10.8-6.4c-0.9-1.5-0.9-4.2,0-5.7
			c1.1-2,3.3-2.7,5.3-2.9c1.8,0.2,2.9,1.8,3.5,2.9c0,1.3-1.1,2.7-1.8,3.8c0,0.4,0.4,1.3,1.3,0.9c1.3-0.4,2.4-2,2.7-3.3
			c0-0.7,0.4-1.8-0.2-2.2c-0.7-2.2-2.9-3.8-4.9-4.2c-2.7-0.2-5.3,0.4-7.1,2.4c-2.4,2.2-2.4,6-1.8,8.8c1.8,4.6,6.6,7.7,11.3,8.4
			l101.2,0.4c9.9,0.4,21-1.1,30.9,0.9c3.5,1.1,7.5,4,8.4,8c0,0.2-0.4,0-0.7,0c-8.2-5.3-19-7.3-29.6-6.2c-4.2-0.2-8,1.3-11.7,2.4
			c-2,0.4-3.8-0.4-5.1-1.8c-3.8-3.3-10.4-3.1-15-2c0,0.2,0,0.7,0,0.7c5.1-0.4,8.2,4,12.6,4.4c1.1,0.2,1.8-0.9,2.9,0
			c-4.9,2.2-9.3,5.1-14.4,6.4c-1.5-0.2-2.4-1.8-3.5-2.7c-2-2.2-5.5-1.3-8.4-1.5c-0.9,0.2-1.8-0.4-2.4,0c0.9,1.8,2.7,2.7,4.4,3.5
			c2.7,1.1,5.5,0,8,1.5c-0.7,0.7-1.5,0.9-2.2,1.5c-4.9,2-9.1,6.2-14.4,6c-5.7,0.7-11.5-1.1-15.5-5.1c-1.8-4.2-6-6.2-10.6-6.2
			c-0.2,0.2-0.7,0.2-0.7,0.7c2.2,1.3,4,4,6.4,5.7c1.5,1.8,4.2,0,5.5,2c2,1.3,4.4,2.4,6.9,2.9c1.8,0.7,3.5,1.1,5.5,1.5l-0.2,1.8
			c-9.5,3.1-20.3,3.5-30.9,3.1c-3.1,0-6.2-1.1-9.3-0.9c0.4,0.7,1.5,1.1,2.4,1.5c-0.9,0.4-1.8,0.7-2.9,0.9c-1.3,0.2-2.7,0.4-4,1.1
			c-1.8,0-3.1,0.4-4.4,1.1c-1.8,2-3.8,4-6,4.9c0,0.4,0,1.1,0.4,1.1c2-0.9,4.4-0.2,6.4-1.1c3.5-0.2,5.3-4.2,8.2-5.7
			c2.9-2.2,7.1-1.8,10.6-1.3c2,0.4-0.2,1.3,0.4,2.7c0.9,0.7,1.5,1.5,2.7,1.3c0.2-0.2,0.4-0.4,0.7-0.4c0.7-0.9,0.4-1.8,0-2.7
			c1.5-0.9,3.5,0,5.1-0.4c4,0,8-0.9,11.7-1.1c0.7,0,1.3-0.7,2,0c-0.2,0.9-1.3,0.9-0.9,2c0.2,0.9,1.3,1.3,2,1.5
			c1.1-0.4,2-1.1,1.5-2.4c-0.2-0.7-1.1-0.9-1.5-1.1c2.2-1.1,4.6-1.3,6.9-2.4c1.5-0.2,3.1-0.9,4.4-1.5c1.3,0,2.4-1.3,3.8-0.9
			c-0.4,1.8-1.3,3.5-2.2,5.1c-1.8,5.5-2.9,12.8,0,18.3c0.2,0,0.4,0,0.7-0.2c-2.2-5.5-0.9-11.9,0.9-17.2c1.5-8.8,10.6-11.5,17.2-14.8
			l0.2,0.4c-1.8,4.6-4.4,9.1-4,14.6c0.2,0.9-0.4,2,0,2.4c1.8-0.9,2.9-3.1,3.8-4.9c0.7-4.6-2-10.6,2.9-14.1c8.6-3.3,16.6-7.7,26.5-8
			c0.2,0.2,1.1-0.2,1.1,0.4c-2,2.2-5.1,4.4-6,7.3c-3.3,4.6-3.3,12.4-1.8,18.1c0.9,3.3-1.8,5.1-3.3,7.5c-0.7,0.9-0.9,2.4-1.3,3.5
			l2,0.2c1.8-2,3.5-4.2,3.5-6.9c0.2,1.1,1.1,2,2,2.2c0.7-1.1-0.7-2-0.7-3.1c1.8-0.9,2.4,1.1,3.8,1.5c2.2,0.4,4,1.5,6.4,1.5l0.9-1.3
			c-2.2-3.5-6.9-4.2-10.8-4.4c-2-3.5-2-7.7-1.8-11.9c0.4-2.2,0.9-4.4,2-6.4c0.4-1.5,2-2.9,2.9-4c1.8-1.8,4.2-3.1,6.6-3.5h0.2
			c0,0.2,0,0.2,0,0.2c-2.9,2.2-3.1,5.3-4.9,8c-1.8,2.7-2.7,6.2-0.9,9.1c0.7,1.3,0.2,3.5,1.8,4.4c1.3-2,1.5-4.2,2.2-6.4
			c-0.2-3.5-2.4-6.6-0.4-10.2c1.1-2.7,3.3-3.8,5.5-4.6c5.7-0.4,10.8,2.4,15.7,4.6c1.1,0.7,2.9,1.3,3.1,2.9c0,2.9-1.8,5.7-3.8,7.1
			c-2.9,1.8-6.9,2-9.5,0c-1.5-1.5-2.2-4.2-1.8-6.4c1.1-1.3,2.7-2.2,4.6-1.8c1.1,0.4,2,1.5,3.3,0.9c0.4-0.2,0.7-1.1,0.4-1.8
			c-1.1-0.7-1.5-2.2-3.1-2.4c-2-0.2-4.4-0.2-5.7,1.1c-2.2,2-3.1,4.6-2.4,7.3c0.7,3.3,3.3,5.7,6.4,6.6c4.9,1.1,9.7-0.2,12.8-4.4
			c1.3-1.3,1.5-2.9,2.2-4.4c5.1,3.1,8.8,8.4,10.8,13.9c0,1.8,0.4,3.8,0,5.3l3.5,0.2c-0.2-0.9,0-1.8,0.2-2.4
			c1.3-6.9,5.5-12.6,10.8-17.2c1.8-1.1,1.3,1.3,1.8,2c1.5,4,5.3,6.9,9.1,8c4.4,0.7,8.6-0.2,11.3-3.8c1.3-2.4,3.1-6.2,0.7-8.8
			c-1.5-1.8-3.5-2.7-5.7-2.7c-2.7,0-4.4,2-5.7,4c0,0.9,0,1.8,0.7,2.2c0.4,0,1.3,0,1.5-0.4c0.2-1.5,1.5-2.2,2.9-3.1
			c1.1-0.7,2.4,0,3.3,0.7c1.1,0.9,1.3,2.4,1.5,4.2c-0.2,2-1.5,4.2-3.5,4.9c-3.1,1.5-7.3,0.9-9.9-0.9c-1.3-1.3-2-2.9-2.9-4.6
			c-0.2-1.8-0.9-3.1,0-4.9c4.6-2.7,9.3-4.6,14.8-5.3c2.2,0.4,4,2,5.5,3.5c4.9,4.9-1.1,11.9,2.2,17.5c1.3-0.2,1.3-2,1.8-2.9
			c1.5-3.8-0.4-8-1.3-11.5c-1.3-2.2-2-4.2-4-6.2c0.4-0.2,0.7-0.2,1.3-0.2c2.2,1.5,4.6,3.1,6.4,5.5c3.1,4.9,4.6,10.8,4,17.2
			c-0.9,3.1-4.2,4.6-6.9,5.7c-1.1,0.9-2.2,2-2.9,3.3c1.3,0.7,3.1,0,4.2-0.4c2-0.7,3.1-3.3,4.4-4.4c0.2,0,0,0.4,0.2,0.7
			c0,1.1-0.4,2.7,0.4,3.1c0.4-1.5,0.7-3.5,0.9-5.3c1.3,1.5,1.5,3.3,2,5.3c0.9,2,2.4,4.4,5.1,4.6c0.7-0.9,0-2-0.2-2.7
			c-0.2-2.7-2.4-4-4-6c-3.8-5.1-2-12.8-4.9-18.6c-1.1-3.1-3.3-5.3-5.5-7.7l0.4-0.4c5.1,0,9.3,1.5,14.1,2.4
			c5.7,2.9,14.1,2.2,16.8,9.7c1.1,4.2,3.1,8.2,6,11.3l0.2-0.2c0.7-1.1,0.7-2.9,0-4c-0.7-5.3-5.3-6.4-7.5-10.8l0.2-0.4
			c2.4,0.7,5.1,1.3,7.5,2.4c8.4,2.2,14.1,10.4,15.3,19c0,6.6-1.3,12.4-3.8,17.9c-0.2,0.9-1.8,1.8-0.9,2.4c1.1-0.9,1.3-2.2,2-3.1
			c3.5-5.7,5.3-13.7,3.5-21c0-1.3-1.8-2.4-0.9-3.8c0.4,0.7,1.1,0.7,1.8,0.9c0.7-0.4,1.5-0.4,2-1.1c0-0.7,0.4-1.3,0-2
			c-0.7-0.9-2-0.9-3.1-0.7c-0.4,0.7-1.1,1.5-1.3,2.2c-1.1-1.8-2-4-3.8-5.5l0.2-0.2c4.6,1.5,9.1,4,13.7,5.1c1.1,0.7,2.2,1.1,3.5,1.1
			c4,1.5,8.6,2.2,12.8,3.3c3.1-0.2,5.7,1.1,8.8,0.4v-0.2l0,0c-1.1-1.5-3.5,0-5.1-1.1c-7.3-0.7-14.1-2.7-20.6-5.1
			c0-0.2,0.4-0.2,0.9-0.2c1.1-0.4,1.8-1.5,1.8-2.7c-0.4-0.7-1.3-1.1-2.4-1.1c-0.7,0.2-1.5,1.1-1.5,1.8c0,0.9,0.9,1.8,1.5,2
			c-0.2,0.2-0.7,0-0.9,0c-3.3-1.5-6.4-2.9-9.5-4.2c-1.1-0.2-2-1.1-3.3-1.3c-2.4-1.1-4.9-2.2-7.3-3.3c-6.6-3.5-14.1-5.3-21.2-8
			c-1.5-0.4-3.1-0.9-4.4-1.3c-2.7-0.7-5.3-1.3-7.7-2.2c-8.8-2.2-20.8-2.4-28.5,2.4c-1.3-0.4-2,1.5-2.7,0.2c2.2-5.7,8.6-7.7,14.4-8
			c41.8-0.4,80.9-0.7,122-1.3c4.9,0,9.5-1.8,11.9-6C465.1,407.1,465.3,402.9,464,400.1L464,400.1z M298.4,438.7
			c-0.4,1.3-1.3,2.2-1.1,3.8l-0.4,0.2c0.2-1.5-1.3-2.4-0.9-4.2c-0.9-1.3-0.9-2.9-1.5-4.2c-0.9-1.8,0.9-2.4,1.5-3.5
			c1.5,0.7,2,2,3.1,3.3C299.5,435.6,298.2,437,298.4,438.7L298.4,438.7z"/>
		<path class="st0" d="M411.4,432.1c0,0.2,0.7,0.4,0.4,0.9c-3.5,3.3-8.8,4.2-13.9,4.4c-0.4,0-0.9,0.4-1.3,0.2
			c-0.2-0.2-0.4-0.4-0.2-0.7C400.1,433,405.6,430.8,411.4,432.1L411.4,432.1z"/>
		<path class="st0" d="M394.6,433.9c0.4,1.5-0.4,2.2-1.8,2.9c-1.1,0-1.8-0.9-2.2-1.8c-0.2-0.9,0.4-1.3,0.7-1.8
			C392.1,432.3,394.1,432.3,394.6,433.9L394.6,433.9z"/>
		<path class="st0" d="M196.5,434.1c0.2,0.7,0,1.8-0.4,2.2s-1.3,0.7-1.8,0.4c-0.7,0-1.1-0.9-1.3-1.5c0-0.9,0.4-1.5,1.3-2
			C195,433.2,195.8,433,196.5,434.1L196.5,434.1z"/>
		<path class="st0" d="M177.9,440.7v0.9c-2.4,0.4-4.9,0-6.9-1.5c-1.5-2.2-3.1-4.2-5.5-5.3c0-0.2-0.7-0.7,0-0.9
			C170.9,433.9,174,438.1,177.9,440.7L177.9,440.7z"/>
		<path class="st0" d="M427.1,433.9c-2.4,3.5-4.4,8-8.8,9.5c-0.7,0-1.3,1.1-2,0.2c1.8-4,5.3-8.2,9.3-9.9
			C426.2,433.9,426.8,433.7,427.1,433.9L427.1,433.9z"/>
		<path class="st0" d="M202.7,435.2c0,1.1-0.7,1.3-1.5,2c-0.9,0-1.3-0.4-1.8-1.1c-0.4-1.1,0.4-1.5,1.1-2
			C201.4,433.9,202.3,434.3,202.7,435.2L202.7,435.2z"/>
		<path class="st0" d="M440.3,435.9c-0.9,1.3-0.4,3.3-1.5,4.9c-2,2.4-3.8,5.1-7.3,5.7c-0.4-1.1,0.7-2,1.3-3.1
			c1.5-3.1,3.5-6.6,6.9-8.2L440.3,435.9L440.3,435.9z"/>
		<path class="st0" d="M145.7,436.7c0.2,0.7,0.7,1.5,0,2.2c-0.7,0.4-1.5,0.7-2.4,0.4c-0.9-0.4-1.3-1.8-0.9-2.4
			C143,436.1,145,435.4,145.7,436.7L145.7,436.7z"/>
		<path class="st0" d="M139.7,438.1c0,0.4,0.4,0.9,0.2,1.5c-0.2,0.4-0.9,1.1-1.5,1.3c-1.1,0.2-1.8-0.4-2.4-1.3
			c0-0.9,0.2-1.8,1.1-2.2C138.2,436.7,139.3,437.2,139.7,438.1L139.7,438.1z"/>
		<path class="st0" d="M152.1,438.5c0.2,0.9,0.4,2.2-0.9,2.4c-1.5,0.7-2.2-0.4-3.1-1.3c0-0.9,0.4-1.8,1.3-2
			C150.3,437.6,151.2,437.9,152.1,438.5L152.1,438.5z"/>
		<path class="st0" d="M169.1,440.1c0,0.7,0,1.8-0.7,2c-0.4,0.4-1.5,0.2-2,0.2c-0.2-0.7-1.3-1.1-0.7-2c0.4-0.4,0.9-0.9,1.5-1.1
			C167.8,439.4,168.7,439.2,169.1,440.1L169.1,440.1z"/>
		<path class="st0" d="M450.3,440.7c-0.2,0.7-0.7,1.8-1.5,1.8c-0.9,0-1.8-0.2-2.4-1.1c-0.4-1.1,0.4-1.8,1.3-2
			C448.7,439.2,450.1,439.6,450.3,440.7L450.3,440.7z"/>
		<path class="st0" d="M431.3,441.2c0,0.9-0.9,1.5-1.3,1.8c-1.5,0.7-2.7-0.4-3.3-1.5c0.2-0.9,0.9-1.5,1.8-2
			C429.9,439.4,430.6,440.3,431.3,441.2L431.3,441.2z"/>
		<path class="st0" d="M444.1,440.9c0,0.7-0.4,1.5-0.9,1.8c-0.9,0.2-1.8,0.2-2.4-0.4c-0.9-0.9-0.2-1.5,0.4-2.2
			C442.1,439.6,443.9,439.8,444.1,440.9L444.1,440.9z"/>
		<path class="st0" d="M143,442.7c0.2,1.1-0.2,2.2-1.3,2.7c-0.9,0-2-0.4-2.2-1.5c0-0.9,0.2-2,1.1-2.2
			C141.5,441.4,142.4,442.1,143,442.7L143,442.7z"/>
		<path class="st0" d="M426,444c0.2,1.1-0.2,2.2-1.5,2.7c-0.9,0.2-1.3-0.2-2-0.7c-0.4-0.4-0.9-1.8,0-2.2
			C423.3,442.3,425.3,442.7,426,444L426,444z"/>
		<path class="st0" d="M198.9,445.1c0.4,1.1-0.9,1.3-1.1,2c-0.4,0.2-1.3,0.2-1.5,0c-0.4-0.7-1.1-1.3-0.9-2.2
			c0.4-0.4,0.7-0.9,1.3-1.1C197.8,443.4,198.3,444.5,198.9,445.1L198.9,445.1z"/>
		<path class="st0" d="M448.5,445.8c0.2,0.7-0.4,1.1-0.4,1.5c-0.7,0.4-1.8,0.7-2.4,0.4c-0.9-0.4-0.9-1.3-0.9-2.2
			c0.7-0.4,0.7-0.9,1.5-1.1C447,444.5,448.1,444.7,448.5,445.8L448.5,445.8z"/>
		<path class="st0" d="M441.9,446.3c0.4,1.3-0.7,2-1.5,2.2c-0.4,0-1.1-0.2-1.1,0.4c2.7,1.3,4.4,3.5,6.4,5.5v0.9
			c-3.8,0-7.5-1.1-10.4-4c-0.7-0.4-2-0.4-2.9-1.3c1.3-1.3,3.8-0.9,5.7-0.9c1.3-1.5-1.5-2.4,0.2-3.8c0.7,0,1.1-0.7,1.8-0.4
			C441.2,444.9,441.7,445.6,441.9,446.3L441.9,446.3z"/>
		<path class="st0" d="M399.4,446.3c0.2,0.4-0.4,1.1-0.4,1.8c-0.7,0.7-1.5,0.7-2.2,0.4c-0.4-0.7-1.3-1.3-1.1-2.4
			C396.3,444.5,399,444.7,399.4,446.3L399.4,446.3z"/>
		<path class="st0" d="M166.4,450c-0.2,0.9-0.7,1.5-1.8,1.8c-0.9,0-1.5-0.4-1.8-1.3c0-0.7,0.4-1.1,0.4-1.8
			C164.5,447.8,166.7,448.5,166.4,450L166.4,450z"/>
		<path class="st0" d="M174.8,448.7c0,1.5-1.5,2.2-2,3.8c-1.5,3.5-4.4,6.6-8.4,6.9c-0.4-0.9,1.3-2,1.8-3.1c1.8-3.5,5.1-5.5,8-7.7
			h0.7V448.7z"/>
		<path class="st0" d="M396.8,450c0,1.1-0.9,2-1.8,2.4c-0.9,0.2-1.8-0.4-2.2-0.9c-0.9-0.9-0.2-1.8,0-2.4
			C394.3,447.8,396.1,448.9,396.8,450L396.8,450z"/>
		<path class="st0" d="M403.4,450.7c0,1.1-0.9,2-1.8,2.2c-0.2-0.2-0.7,0-1.1-0.2c-0.7-0.4-1.3-1.1-1.3-2c0.4-0.4,0.7-1.3,1.5-1.5
			C401.4,449.3,403,449.6,403.4,450.7L403.4,450.7z"/>
		<path class="st0" d="M191,450.7c0,1.1-0.7,1.8-1.5,2.2c-0.9,0-1.5-0.4-2-1.3c-0.2-0.9,0.7-1.5,1.3-2
			C190.1,449.1,190.3,450,191,450.7L191,450.7z"/>
		<path class="st0" d="M198.3,451.1c-0.2,0.9-0.9,1.5-2,1.8c-0.7-0.2-1.5-0.4-1.8-1.3c0-1.1,0.7-1.5,1.5-2
			C197,449.6,198.1,450,198.3,451.1L198.3,451.1z"/>
		<path class="st0" d="M425.7,458.4c0.4,0.4,1.5,0.9,1.3,1.8c-1.8,0.7-3.1-1.1-4.6-1.5c-2.4-2.4-4.4-5.3-5.5-8.4
			c0.9-0.9,2,0.2,2.9,0.4C422.2,452.7,424.4,455.3,425.7,458.4L425.7,458.4z"/>
		<path class="st0" d="M429.5,451.1c0.2,0.7,0.2,1.5-0.2,2.2c-0.7,1.1-2,0.9-2.9,0.7c-0.4-0.7-1.5-1.5-0.9-2.4
			c0.2-0.9,1.3-1.1,2-1.3C428.4,450.2,428.8,450.7,429.5,451.1L429.5,451.1z"/>
		<path class="st0" d="M207.8,453.8c0,0.9,0.2,2-0.7,2.7c-0.9,0.2-2.2,0-2.4-1.3c-0.4-1.3,0.7-1.5,1.3-2
			C206.7,452.9,207.1,453.3,207.8,453.8L207.8,453.8z"/>
		<path class="st0" d="M403,460.6c1.5,2,2.4,4.6,2.7,7.5c-0.2,0.7,0.4,1.5,0,2h-0.4c-4.6-3.3-5.7-8.2-7.5-12.8
			c-0.4-0.2-0.4-0.7-0.4-1.1c1.1-0.9,1.8,0.9,2.9,1.3L403,460.6L403,460.6z"/>
		<path class="st0" d="M221.3,457.1C221.3,457.1,221.3,457.3,221.3,457.1c-4,3.1-9.9,4.9-14.6,2c0-0.2,0-0.9,0.4-0.9
			c3.1-0.9,6-2.4,9.1-2L221.3,457.1L221.3,457.1z"/>
		<path class="st0" d="M197.6,457.5c-3.5,2.2-6.9,6.4-11.1,7.5c-0.9,0.2-1.3,1.5-2.4,0.9c1.8-5.7,8-8.6,13.5-9.3V457.5L197.6,457.5z
			"/>
		<path class="st0" d="M396.8,462.4c0.2,0.9,0,2-0.9,2.2c-0.4,0.4-1.5,0.4-2,0c-0.9-0.4-0.9-1.3-0.9-2c0.2-0.7,1.1-0.9,1.5-1.1
			C395.7,461.5,396.3,461.5,396.8,462.4L396.8,462.4z"/>
		<path class="st0" d="M388.2,462.8c-0.7,1.5-2.4,2.2-3.8,2.7c-3.5,1.3-6.9-0.4-9.9-1.3c0-0.9,1.1-0.4,1.8-1.1
			c3.5-0.7,7.1-1.5,10.6-0.4C387.3,462.6,387.9,462.4,388.2,462.8L388.2,462.8z"/>
		<path class="st0" d="M197.6,465.9c-0.2,0.4-0.4,1.3-1.3,1.8c-0.7,0.2-1.5,0-2-0.4c-0.2-0.7-0.9-1.1-0.4-2c0.2-0.7,1.1-0.9,1.8-1.1
			C196.5,464.2,197.4,464.8,197.6,465.9L197.6,465.9z"/>
		<path class="st0" d="M203.8,466.8c-0.2,0.7-0.7,1.5-1.5,2c-0.9,0.2-1.5-0.2-2-0.7c-0.2-0.7-0.7-1.3-0.2-2.2
			c0.2-0.4,0.9-0.7,1.5-0.9C202.5,465,203.4,465.9,203.8,466.8L203.8,466.8z"/>
		<path class="st0" d="M394.8,467.9c0,0.9-0.2,1.3-0.7,2s-1.5,0.9-2.2,0.4c-0.7,0-0.9-0.9-1.3-1.5c-0.7-0.9,0.4-1.3,0.7-2
			C392.6,465.7,394.3,466.4,394.8,467.9L394.8,467.9z"/>
		<path class="st0" d="M399.4,467.7c0,0.4,0.4,1.1,0.2,1.5c-0.7,0.4-1.1,2-2.2,1.3c-0.7,0.2-0.9-0.7-1.3-0.9c-0.4-1.1,0-2.7,1.3-2.9
			C398.3,466.6,399,467.3,399.4,467.7L399.4,467.7z"/>
		<path class="st0" d="M200,470.8c0.2,1.1-0.2,2.2-1.1,2.9c-1.1,0.2-2.7,0.2-3.1-1.1c0-1.1,0-2.4,1.3-3.1
			C198.3,469.2,199.6,469.5,200,470.8L200,470.8z"/>
		<path class="st0" d="M206,470.3c-0.2,2.9-0.9,6.4-3.8,8.2c-1.8,0.2-3.3,2-5.1,0.9V479C199.4,475.7,203.4,473.2,206,470.3
			L206,470.3z"/>
		<path class="st0" d="M378.4,472.8c0.4,0.7-0.2,1.1-0.7,1.8c-0.7,0.7-1.8,0.4-2.4,0c-0.7-0.2-0.9-1.3-0.4-2
			c0.2-0.7,0.9-0.9,1.3-1.1C377.1,471.2,378,471.9,378.4,472.8L378.4,472.8z"/>
		<path class="st0" d="M216.4,477.4c1.5,2.4,0.7,5.7,1.5,8.2c-1.8,0.2-2.4-1.8-3.5-2.9c-2.2-3.1-2-7.3-3.1-11.1
			c0.2-0.2,0.4-0.2,0.7-0.2c1.5,1.1,2.7,3.1,4,4.4C215.7,477,216.4,477,216.4,477.4L216.4,477.4z"/>
		<path class="st0" d="M383.7,473.4c0,0.9-0.9,1.1-1.5,1.5c-0.7,0-1.3-0.4-2-0.9c-0.2-1.1,0.4-1.3,1.1-2
			C382.4,471.9,383.5,472.3,383.7,473.4L383.7,473.4z"/>
		<path class="st0" d="M396.1,482.9c0,0.2,0,0.9-0.7,0.7H395c-3.1-2.7-6-5.7-5.5-9.9h0.7C392.8,475.9,396.1,478.5,396.1,482.9
			L396.1,482.9z"/>
		<path class="st0" d="M388.4,479.4c0,0.9-0.4,1.5-0.9,2c-1.1,0.2-2.9,0.2-3.1-1.3c0-1.1,1.1-1.5,1.5-2
			C387.1,477.6,387.9,478.5,388.4,479.4L388.4,479.4z"/>
		<path class="st0" d="M381.5,481.6c-1.5,4-5.5,6-8.2,8.8c-0.4-0.2-0.2-1.1-0.2-1.5c1.1-4,4.2-8,8-9.5
			C382.9,479.6,381.1,481,381.5,481.6L381.5,481.6z"/>
		<path class="st0" d="M389.3,484.9c0,0.9-0.9,1.3-1.5,2c-0.9,0-1.8-0.2-2.2-1.1c0-1.1,0.7-1.3,1.3-2
			C387.9,483.6,388.8,484.1,389.3,484.9L389.3,484.9z"/>
		<path class="st0" d="M311.7,294.4c1.3,0,2.7,1.1,2.7,2.7c0,1.3-1.1,2.7-2.7,2.7h-30.9c-1.3,0-2.7-1.1-2.7-2.7
			c0-1.3,1.1-2.7,2.7-2.7H311.7L311.7,294.4z M290,298.8c3.1,0,0.2-3.8-1.5-3.8h-3.1c-3.1,0-0.2,3.8,1.5,3.8H290L290,298.8z
			 M302.6,298.8c3.1,0,0.2-3.8-1.5-3.8H298c-3.1,0-0.2,3.8,1.5,3.8H302.6L302.6,298.8z M311.9,295.3h-1.1c-3.1,0-0.4,3.8,1.1,3.8
			C313.9,298.8,314.1,295.3,311.9,295.3L311.9,295.3z"/>
		<path class="st0" d="M309,329.8l6,2.2l5.7-2.2l-2.2,8.6l4.6-0.9l-1.5,5.3l1.5,5.1l-4-1.1l1.8,9.3l-5.7-2.2l-6,2.2l2.4-9.3
			l-4.6,1.3l1.3-5.3l-1.3-5.1l4.4,0.7L309,329.8L309,329.8z M317.9,345.5c1.3,0,1.5-1.8,1.5-3.3c0-3.5-2.9,0-4.2-3.3
			c-1.1,2.9-4,0.2-4,3.3c0,2.2,0,3.5,2,3.5h4.6V345.5z M311.9,342.4c0,1.3,1.8,0.4,3.1,0.4s3.1,0.9,3.1-0.4c0-2-1.8-1.3-3.1-1.3
			S311.9,340.4,311.9,342.4L311.9,342.4z"/>
		<polygon class="st0" points="295.3,342.6 295.3,341.5 294.2,341.3 295.1,340.6 294.7,339.7 295.5,339.7 296.2,338.6 296.9,339.7 
			297.8,339.7 297.3,340.6 298.2,341.3 297.1,341.5 297.1,342.6 296.2,341.9 		"/>
		<polygon class="st0" points="290.7,348.6 290.7,347.4 289.6,347.2 290.5,346.3 290,345.5 290.9,345.7 291.6,344.6 292.2,345.7 
			293.3,345.5 292.7,346.3 293.6,347.2 292.4,347.4 292.4,348.6 291.6,347.9 		"/>
		<polygon class="st0" points="298.4,347.9 298.4,346.8 297.5,346.6 298.2,345.7 297.8,344.8 298.9,345 299.3,343.9 300,344.8 
			301.1,344.8 300.6,345.7 301.3,346.6 300.4,346.8 300.4,347.9 299.3,347 		"/>
		<polygon class="st0" points="299.3,352.1 299.3,351.6 298.9,351.4 299.3,351 298.9,350.5 299.5,350.5 300,349.9 300.2,350.5 
			300.8,350.5 300.6,351 301.1,351.4 300.4,351.6 300.4,352.1 300,351.9 		"/>
		<polygon class="st0" points="292.2,357.2 292.2,355.4 290.5,355 291.8,353.6 290.9,352.1 292.7,352.3 293.8,350.5 294.7,352.3 
			296.4,352.1 295.8,353.6 297.1,355 295.3,355.4 295.3,357.2 293.8,356.1 		"/>
		<polygon class="st0" points="295.8,258.4 299.5,267.2 308.8,264.6 304.2,273.2 311.9,278.7 302.4,280.2 303.1,290 295.8,283.6 
			288.7,290 289.1,280.2 279.6,278.7 287.6,273.2 282.9,264.6 292.2,267.2 		"/>
		<path class="st0" d="M262.2,460.6c-1.1,0.4-1.5,0.7-1.3,1.8l1.3,5.5c0.2,1.1,0.2,2.7-0.4,3.5c-0.9,1.1-2.4,2-3.8,2.2
			c-0.9,0.2-2.9,0.7-4.4,0c-1.1-0.4-1.8-0.9-2.2-2.9L250,465c-0.4-1.5-0.9-1.3-2-1.1v-0.4l7.1-1.8v0.4c-1.3,0.4-2,0.4-1.5,2l1.3,5.7
			c0.2,0.9,0.9,3.3,3.8,2.7c3.5-0.9,3.1-3.5,2.9-4.6l-1.3-5.3c-0.2-1.1-0.7-1.5-2.4-1.3v-0.4l4.6-1.1L262.2,460.6L262.2,460.6z"/>
		<path class="st0" d="M272.6,461.7c-0.7-1.1-2.4-2.9-4.9-2.2c-1.1,0.2-2.2,1.1-1.8,2.2c0.2,0.9,0.7,1.3,2.7,1.5l3.3,0.4
			c0.7,0.2,2.7,0.9,3.1,2.7c0.4,1.5-0.4,4-4.4,4.9c-2,0.4-3.1,0-3.8,0.2c-0.4,0-0.4,0.4-0.4,0.7l-0.7,0.2l-0.9-4.2l0.7-0.2
			c0.9,1.8,2.4,3.3,5.1,2.9c2.4-0.7,2.2-2.2,2.2-2.4c-0.2-1.1-1.3-1.3-2.9-1.5l-1.5-0.2c-3.8-0.7-4.2-2.2-4.4-2.9
			c-0.2-1.1-0.2-3.5,3.8-4.4c1.8-0.4,2.9,0,3.3-0.2c0.4,0,0.4-0.4,0.7-0.7l0.7-0.2l0.9,3.8L272.6,461.7L272.6,461.7z"/>
		<path class="st0" d="M286.3,468.6l-7.5,0.7v-0.4c1.5-0.2,2-0.4,2-1.8l-0.9-9.3c-1.5,0.2-3.5,0.4-3.8,3.3h-0.7l-0.2-3.5l12.6-1.3
			l0.4,3.5h-0.7c-0.7-2.9-2.9-2.7-4.4-2.7l0.9,9.3c0.2,1.5,0.7,1.5,2.2,1.3L286.3,468.6L286.3,468.6z"/>
		<path class="st0" d="M303.9,468.6h-4.4l-4.2-5.7h-0.7v3.5c0,1.3,0.4,1.5,1.8,1.8v0.4l-7.1-0.2v-0.4c1.5-0.2,1.8-0.2,2-1.5l0.2-8
			c0-1.5-0.7-1.5-1.8-1.8v-0.4l6.9,0.2c1.5,0,6,0.2,6,3.3c0,2.2-2.2,2.7-3.3,3.1l4.2,5.1c0.2,0.2,0.7,0.4,0.9,0.4L303.9,468.6
			L303.9,468.6z M294.7,462.2c2.9,0,4-0.4,4-2.7c0-1.8-0.9-2.7-2.4-2.7c-1.1,0-1.1,0.2-1.3,0.7L294.7,462.2L294.7,462.2z"/>
		<path class="st0" d="M317.9,470.3l-6.9-0.9V469c1.3,0,1.8,0,1.8-0.4c0-0.4-0.4-1.8-0.7-2.4l-4.6-0.7c-0.7,1.1-1.1,2-1.1,2.2
			c0,0.7,0.9,0.9,1.5,0.9v0.4l-4.2-0.4v-0.4c1.1,0,1.5-0.7,2.2-1.8l6-9.1h0.7l3.5,9.9c0.7,2,0.9,2.7,2,2.7L317.9,470.3L317.9,470.3z
			 M311.9,465.5l-1.5-4.6l-2.4,4L311.9,465.5L311.9,465.5z"/>
		<path class="st0" d="M330.2,473l-12.2-2.2v-0.4c1.1,0,1.8,0.2,2-0.9l1.5-8.4c0.2-1.1-0.7-1.3-1.5-1.5v-0.4l7.3,1.3v0.4
			c-1.5-0.2-2.2-0.2-2.4,1.3l-1.5,8.2c-0.2,0.9,0.2,1.1,1.8,1.3c3.1,0.7,4.6-0.7,6-2.4h0.7L330.2,473L330.2,473z"/>
		<path class="st0" d="M338.2,474.8l-7.3-1.5v-0.4c1.1,0.2,2,0.2,2.2-0.9l1.8-8.4c0.2-1.1-0.7-1.3-1.8-1.5v-0.4l7.3,1.5v0.4
			c-0.9-0.2-2-0.4-2.2,0.9l-1.8,8.4c-0.2,1.1,0.7,1.3,1.8,1.5V474.8L338.2,474.8z"/>
		<path class="st0" d="M353,476.5l-6.9-0.7v-0.4c1.3,0,1.8,0,1.8-0.4c0-0.4-0.4-1.8-0.7-2.4l-4.9-0.4c-0.7,1.1-1.1,2-1.1,2.2
			c0,0.7,0.9,0.9,1.5,0.9v0.4l-4.2-0.4v-0.4c1.1,0,1.5-0.7,2.2-1.8l5.7-9.3h0.7l3.8,9.7c0.7,2,1.1,2.7,2,2.7V476.5L353,476.5z
			 M347,471.7l-1.8-4.6l-2.4,4.2L347,471.7L347,471.7z"/>
		<path class="st0" d="M298.6,332.6c0-4.2-2.4-0.2-3.8-4c-0.9,3.1-3.8,0.4-3.8,3.8c0,1.3,0.2,2,0.9,2.4v1.3c0,0.2,0.2,0.7,0.7,0.7
			h4.6c0.2,0,0.7-0.2,0.7-0.7v-1.3C298.4,334.4,298.6,333.7,298.6,332.6L298.6,332.6z M295.1,333.5c-1.3,0-2.9,0.9-2.9-0.7
			c0-2.2,1.3-1.5,2.7-1.5c1.3,0,3.1-0.4,3.1,1.5C298,334.4,296.2,333.5,295.1,333.5L295.1,333.5z"/>
		<path class="st0" d="M336,385.2c1.1,0,2-0.9,2-1.8s-0.9-1.8-2-1.8c-1.1,0-2,0.9-2,1.8C334,384.6,334.9,385.2,336,385.2L336,385.2z
			"/>
		<path class="st0" d="M326.7,321.8c0,0-0.9,1.5-0.9,1.8c0,0.7,0.4,1.1,0.9,1.1c0.4,0,0.9-0.4,0.9-1.1
			C327.8,323.6,326.7,321.8,326.7,321.8L326.7,321.8z"/>
		<path class="st0" d="M263.9,321.8c0,0-0.9,1.5-0.9,1.8c0,0.7,0.4,1.1,0.9,1.1c0.4,0,0.9-0.4,0.9-1.1L263.9,321.8L263.9,321.8z"/>
		<path class="st0" d="M279.6,321.8c0,0-0.9,1.5-0.9,1.8c0,0.7,0.4,1.1,0.9,1.1c0.4,0,0.9-0.4,0.9-1.1L279.6,321.8L279.6,321.8z"/>
		<path class="st0" d="M295.3,321.8c0,0-0.9,1.5-0.9,1.8c0,0.7,0.4,1.1,0.9,1.1c0.4,0,0.9-0.4,0.9-1.1L295.3,321.8L295.3,321.8z"/>
		<path class="st0" d="M311,321.8c0,0-0.9,1.5-0.9,1.8c0,0.7,0.4,1.1,0.9,1.1c0.4,0,0.9-0.4,0.9-1.1
			C311.9,323.6,311,321.8,311,321.8L311,321.8z"/>
		<path class="st0" d="M263.9,343.5c0,0,0.9,1.5,0.9,1.8c0,0.7-0.4,1.1-0.9,1.1c-0.4,0-0.9-0.4-0.9-1.1
			C263,345.2,263.9,343.5,263.9,343.5L263.9,343.5z"/>
		<path class="st0" d="M263.9,364.5c0,0,0.9,1.5,0.9,1.8c0,0.7-0.4,1.1-0.9,1.1c-0.4,0-0.9-0.4-0.9-1.1
			C263,366.2,263.9,364.5,263.9,364.5L263.9,364.5z"/>
		<path class="st0" d="M266.4,381c0,0,0.9,1.5,0.9,1.8c0,0.7-0.4,1.1-0.9,1.1c-0.4,0-0.9-0.4-0.9-1.1
			C265.5,382.8,266.4,381,266.4,381L266.4,381z"/>
		<path class="st0" d="M279.6,389.9c0,0,0.9,1.5,0.9,1.8c0,0.7-0.4,1.1-0.9,1.1c-0.4,0-0.9-0.4-0.9-1.1L279.6,389.9L279.6,389.9z"/>
		<path class="st0" d="M327.6,343.5c0,0-0.9,1.5-0.9,1.8c0,0.7,0.4,1.1,0.9,1.1s0.9-0.4,0.9-1.1
			C328.5,345.2,327.6,343.5,327.6,343.5L327.6,343.5z"/>
		<path class="st0" d="M327.6,364.5c0,0-0.9,1.5-0.9,1.8c0,0.7,0.4,1.1,0.9,1.1s0.9-0.4,0.9-1.1
			C328.5,366.2,327.6,364.5,327.6,364.5L327.6,364.5z"/>
		<path class="st0" d="M325.2,381c0,0-0.9,1.5-0.9,1.8c0,0.7,0.4,1.1,0.9,1.1c0.4,0,0.9-0.4,0.9-1.1C326,382.8,325.2,381,325.2,381
			L325.2,381z"/>
		<path class="st0" d="M311.9,389.9c0,0-0.9,1.5-0.9,1.8c0,0.7,0.4,1.1,0.9,1.1c0.4,0,0.9-0.4,0.9-1.1L311.9,389.9L311.9,389.9z"/>
		<path class="st0" d="M295.8,399.2c0,0-0.9,1.5-0.9,1.8c0,0.7,0.4,1.1,0.9,1.1s0.9-0.4,0.9-1.1
			C296.6,400.9,295.8,399.2,295.8,399.2L295.8,399.2z"/>
		<path class="st0" d="M321.4,368c0.2,0.2,0.7,0.4,1.3,0.2l0.7-1.8c0-0.2-0.7-0.9-1.1-0.7c-1.8,0.4-3.5,0.7-4.4,2.2
			c0,1.1,0.9,2,1.5,2.7c0.7-0.2,0.7,0.4,1.1,0.7c0,0.4-0.2,0.9-0.7,0.9c-1.1-1.1-3.3,0.4-4.2-1.1c0.4-1.5,1.1-3.1,0-4.6
			c0-0.2,0.7-0.7,0.2-0.9c-0.4-1.3-2-0.2-2.9-0.2c-1.5-0.2-2.7,0.7-3.5,1.8c0,0.4,0.2,1.1,0.9,1.5c0.4,0,0.7,0,0.7,0.4l-0.9,0.7
			c0.2,0.2,0.2,0.7,0.4,1.1c-0.7,0.2-1.3-0.7-1.8-1.1c0-0.9,0-2.2-0.9-2.4c-0.2,0-0.9,0.2-0.9,0.2c-0.2,0.2-0.4,0.9-0.4,1.5
			s0.4,1.8,0.4,1.8s3.1,2.2,3.8,3.8c-0.9,1.8-0.9,4.2-2.9,5.3c-0.7,0.4-0.7,1.1-0.7,1.5l0.4,0.4c1.3-0.7,3.8-0.9,3.5-3.1
			c0.4-0.9,0.9-2,1.8-2.7c0.9-0.2,2,0.2,2.2,1.1c-0.2,1.5-1.3,2.4-2.7,3.1c-0.2,0.2,0,0.4,0,0.9c0.4,0.7,1.5,0.4,2,0.2
			c1.8-1.1,2.4-3.1,3.8-3.8c0.2,1.1-2,1.3-0.7,2.2c0.9-0.2,2,0,2.7-1.1c-0.7-1.8,2.4-2.4,0.4-4c0-1.5,1.5-2,1.5-3.8
			c-0.7-1.5-2.4-1.5-2.9-3.1C319.9,367.6,320.7,367.6,321.4,368L321.4,368z"/>
		<path class="st0" d="M249.1,386.1c1.1,0,2-0.9,2-1.8c0-0.9-0.9-1.8-2-1.8c-1.1,0-2,0.9-2,1.8C247.1,385.2,248,386.1,249.1,386.1
			L249.1,386.1z"/>
		<path class="st0" d="M147.2,445.6c1.1,0,2-0.9,2-1.8c0-1.1-0.9-1.8-2-1.8s-2,0.9-2,1.8C145.2,444.9,146.1,445.6,147.2,445.6
			L147.2,445.6z"/>
		<path class="st0" d="M212,460.2L212,460.2l-0.2-0.2l0,0l0,0C211.8,460.2,211.8,460.2,212,460.2L212,460.2h-0.4l0,0l0,0V460l0,0
			l0,0h0.2h0.2C212,460,212,460,212,460.2L212,460.2L212,460.2L212,460.2L212,460.2z M211.8,460C211.8,460,212,460,211.8,460
			C212,459.7,211.8,459.7,211.8,460C211.8,459.7,211.8,459.7,211.8,460L211.8,460L211.8,460z"/>
		<path class="st0" d="M212.2,460C212.2,459.7,212.2,459.7,212.2,460C212.2,459.7,212.2,459.7,212.2,460L212.2,460L212.2,460
			C212.2,460,212.4,460,212.2,460c0,0.2,0,0.2-0.2,0.2l0,0l0,0l0,0V460l0,0c0,0,0,0.2,0.2,0.2V460L212.2,460L212.2,460
			c-0.2,0-0.2,0-0.2,0C212,459.7,212,459.7,212.2,460C212.2,459.7,212.2,459.7,212.2,460C212.2,459.7,212.2,459.7,212.2,460
			L212.2,460L212.2,460L212.2,460L212.2,460z"/>
		<path class="st0" d="M212.9,459.7L212.9,459.7l-0.2,0.4l0,0V460l0,0l-0.2,0.2l0,0l-0.2-0.2l0,0l0,0h0.2l0,0l0,0l0,0v0.2l0,0V460
			l0,0l0,0l0,0L212.9,459.7L212.9,459.7C212.9,459.7,212.6,459.7,212.9,459.7C212.6,459.7,212.6,459.7,212.9,459.7l-0.2,0.2l0,0
			L212.9,459.7L212.9,459.7L212.9,459.7L212.9,459.7L212.9,459.7L212.9,459.7L212.9,459.7z"/>
		<path class="st0" d="M213.1,460.2L213.1,460.2C213.1,460,213.1,460,213.1,460.2C213.1,460,213.1,460,213.1,460.2
			c0-0.2,0-0.2,0-0.2s0-0.2,0.2-0.2c0,0,0.2,0,0.2,0.2C213.3,460,213.1,460.2,213.1,460.2L213.1,460.2L213.1,460.2z M213.1,460
			L213.1,460L213.1,460C213.1,459.7,213.1,459.7,213.1,460C213.1,459.7,213.1,459.7,213.1,460L213.1,460L213.1,460z"/>
		<path class="st0" d="M213.3,460C213.3,460,213.5,460,213.3,460C213.5,460,213.5,460,213.3,460c0.2,0.2,0.2,0.2,0,0.2
			C213.3,460.2,213.3,460.2,213.3,460L213.3,460C213.3,460,213.3,460.2,213.3,460C213.5,460.2,213.5,460.2,213.3,460
			C213.5,460,213.5,460,213.3,460L213.3,460L213.3,460L213.3,460L213.3,460L213.3,460L213.3,460L213.3,460z"/>
		<path class="st0" d="M332,319.4L332,319.4h-72.5l0,0l0,0v55.5c0,5.7,2.4,10.6,5.7,12.2l27.9,17.7c0.7,0.7,1.5,1.1,2.7,1.1
			c0.9,0,1.8-0.4,2.2-0.9l28.3-17.9c3.3-1.5,5.7-6.4,5.7-12.2V319.4L332,319.4L332,319.4z M330,375.5c-0.4,4.2-1.8,7.7-4.6,9.7
			L298,402.7h-0.2c-0.7,0.4-1.3,0.7-2.2,0.7c-0.9,0-1.5-0.2-2.2-0.9L265.9,385c-2.9-2-4.4-5.5-4.6-9.7v-53.9h68.5v54.2H330z"/>
		<path class="st0" d="M305.5,400.3l0.9-0.4C305.9,399.8,305.7,400.1,305.5,400.3L305.5,400.3z"/>
		<path class="st0" d="M250.7,476.1l-6.9,0.9v-0.4c1.3-0.2,1.8-0.2,1.5-0.9c0-0.4-0.9-1.8-1.3-2.2l-4.6,0.7
			c-0.4,1.3-0.7,2.2-0.7,2.4c0,0.7,1.1,0.7,1.8,0.7v0.4l-4.2,0.4v-0.4c1.1-0.2,1.3-0.9,1.8-2.2l3.5-10.2h0.7l5.7,8.8
			c1.1,1.8,1.5,2.4,2.7,2.2V476.1L250.7,476.1z M243.8,472.6l-2.7-4l-1.5,4.6L243.8,472.6L243.8,472.6z"/>
		<path class="st0" d="M370.9,450c-1.3-3.3-3.8-5.5-7.1-6.4c-3.3-0.7-6.9-0.2-9.1,2.2c-3.8,3.1-1.1,8.2-1.1,12.2c0,0.9,0,1.5-0.7,2
			c-15-1.3-29.2-5.1-44.2-6.6c-3.5-0.7-6.9-0.4-10.2-1.1l-4.2-0.4c-13,0.4-26.1,1.1-38.2,4.2c-2.7,0.9-5.5,1.1-8.2,2
			c-1.8-0.2-3.5,1.1-5.3,0.4l-3.5,0.9c-0.2,0-0.7,0-1.1,0c-1.8-4.2,3.3-6.9,1.8-11.1c-1.3-2.4-4-4.6-7.3-4.2
			c-3.5-0.4-6.6,1.5-8.4,4.2c-2.4,5.3,0.7,10.6,1.5,15.9c-0.2,1.8,1.8,3.5,0,4.9c-3.3-2.2-7.7-3.5-11.7-2.4
			c-1.3,0.7-3.5-0.2-4.2,1.3c4.4,2.4,10.2,2,15.3,2c0.7-0.2,1.1-0.2,1.5,0c0.4,2.7-0.4,6.4,1.1,8.8c1.8,2.4,5.1,3.1,8,3.5
			c9.5-0.2,18.1-3.1,27-5.3c1.3,0,2.4-0.9,3.8-0.9c4.6-1.1,9.7-2,14.8-2c-2.2,2.9-3.5,6-4.4,9.5c-1.3,2.9,2.2,3.3,3.3,4.9
			c-3.3,0.9-5.5,3.1-8.6,4.4c-6.6-0.2-12.4,2.2-18.6,3.1c0,1.3,2.2,0.9,2.4,2.2c-0.2,0.9-1.3,1.1-2,1.5c0,0.7,0,0.7,0.7,0.9
			c0.7-0.7,2-0.2,2.7-0.9c2,0,3.8-0.7,5.7-0.7c1.8-0.7,3.8-0.9,5.3-2c2.2-0.7,3.5-2,5.7-2.7c3.1,0,6-1.1,8.8-1.3v0.7
			c-2.4,4-4.9,8-7.3,11.5c-0.4,0.7,0,1.5,0.7,1.8c1.5,0.4,2.9,0,4-0.7c2.2-3.8,4.2-7.3,6-11.3c0.7-3.5,3.3-5.5,6-8
			c0.4-0.2,1.1-0.9,1.5-0.2c-2,2.4-3.5,4.6-5.1,7.3c-0.9,2.9-1.1,6.6,1.5,9.1c1.3,1.1,3.1,0.7,4.9,0.9c4-2,9.3,1.3,12.4-2.7
			c1.8-0.2,2.2,2,3.3,2.9c1.8,0.4,3.5,2.2,5.5,1.1c0-1.1-1.3-2.2-2-3.3c-1.3-2.2-2.9-4-4-6c-0.4-1.5-1.5-2.4-1.8-4
			c1.8,0.7,3.5,2,5.5,2.2c1.8,0.7,4,0.7,5.5,1.8c1.3,1.8,3.5,2.9,5.3,4c2.7,1.3,5.5,1.5,8.2,2.4c1.1,0,2.7,0.9,3.3,0
			c-0.4-0.4-0.9-0.9-1.5-1.1c-0.2-1.3,1.8-0.7,2.7-1.8c-0.2-0.4-0.7-0.7-1.1-0.9c-1.5-0.9-5.3-1.1-6.2-1.5c-1.3-0.2-2.4-0.7-3.5-1.1
			c-6.2,0-9.7-5.7-14.6-7.7c1.1-1.1,2.9-2,3.5-3.5c0.9-1.5,1.3-4,0.2-5.5c-0.9-3.3-5.1-2.9-7.5-4.6l0.2-0.2c4-0.2,7.5,0.7,11.3,1.5
			c9.9,1.3,19.2,5.1,29.6,5.3c5.7,0,12.8,0.2,15.7-5.3c0.4-3.3,1.1-6.4,1.8-9.7C368,460.6,371.4,455.8,370.9,450L370.9,450z
			 M258.4,498l-1.5-1.3c0.7-0.9,2.2-0.4,3.5-1.1c2.7-0.9,5.7-2,8.8-1.3C266.1,496.7,262.2,497.1,258.4,498L258.4,498z M323.4,496.2
			c2.4,1.1,7.5,2.2,11.1,2.7c-0.2,1.3-2.9,0-2.7,2c-3.3-1.3-7.1-2-9.3-4.4C322.9,496.4,322.9,496.2,323.4,496.2L323.4,496.2z
			 M225.7,451.6c0.2-2,0.7-4,2.4-5.3c2.4-1.3,6-1.1,8.2,0.2c0.7,0.4,1.3,1.1,1.8,2c0.4,1.8-0.2,3.8-1.5,4.6h-1.1
			c0-1.8,0-3.3,0.7-4.6c0-1.3-1.1-1.3-2-2c-1.8-0.4-3.3,0.2-4.6,1.1c-1.1,1.3-2,2.9-1.3,4.6c0.7,1.1,0,2.7,0.4,4l-0.2,0.4
			C227,455.5,225.5,454,225.7,451.6L225.7,451.6z M230.6,454.7c1.5,1.1,3.8,0.7,5.5,0.9c0.2,1.1,0.2,2.7-0.4,3.5
			c-1.8-0.4-4-0.2-5.1-2C231,456.4,230.3,455.5,230.6,454.7L230.6,454.7z M230.3,451.1c0.2-0.9,0-2,1.1-2.2c0.7-0.2,1.8-0.2,2,0.7
			c0,1.3-0.2,2.4-0.4,3.8C231.4,453.1,230.8,452.4,230.3,451.1L230.3,451.1z M279.2,484.7c-0.4-3.8,0.9-6.9,3.3-9.5
			c1.5-0.2,3.1-0.7,4.4,0.2c-2.7,0.7-6.2,1.3-6.9,4.9c0,1.3-0.2,2,0.2,3.3c1.1,2,3.8,1.1,5.3,2.7c0,0.4-0.4,1.1-0.9,1.3
			C282.9,486.5,280.7,486,279.2,484.7L279.2,484.7z M275.4,492c2.4-1.1,5.1-3.3,8-2.2C281.4,491.3,278.1,491.8,275.4,492L275.4,492z
			 M285.4,493.1c-1.5,3.3-3.1,6.6-5.1,9.9c-0.2,0.4-1.1,0.7-1.8,0.7c0-1.5,1.5-2.7,2-4c2.2-2.9,2.9-6,5.3-8.6
			C286.5,491.8,285.4,492.2,285.4,493.1L285.4,493.1z M288,486.9v0.4h-0.2L288,486.9L288,486.9L288,486.9
			C288,486.9,287.8,486.9,288,486.9L288,486.9L288,486.9z M286.9,484.1c-1.8-0.2-3.5-0.7-5.1-1.3c-1.1-1.1,0-2.2,0-3.3
			c1.5-2.2,5.5-3.5,7.5-1.3C289.4,480.5,288.5,482.5,286.9,484.1L286.9,484.1z M289.4,484.1c0.2-1.3,0.9-3.1,1.8-4.4
			C290.9,481.2,290.2,482.9,289.4,484.1L289.4,484.1z M290.5,475.7c-1.3-0.2-2-2-3.5-2c1.3-0.4,2.4-0.2,4,0
			C291.3,474.3,290.5,475,290.5,475.7L290.5,475.7z M291.6,478.7L291.6,478.7v-1.1l0,0V478.7L291.6,478.7z M291.8,483.6
			c0-0.4,0.2-0.9,0.2-1.5c0.4-0.4,1.1,0.4,1.3,0.7C293.1,483.4,292.4,483.6,291.8,483.6L291.8,483.6z M293.3,477.2
			c0.4-1.5,0.7-2.7,1.5-4c1.1,0,2,0,2.9,0.4c0.2,2.2,2.9,4.9,0,6.6c-0.9,0.4-2.2,1.3-3.3,0.4C293.1,479.6,292.9,478.5,293.3,477.2
			L293.3,477.2z M300.8,474.1c-0.2-0.9,0.9-0.2,1.3-0.7l3.3,0.2C303.9,473.4,301.7,477.4,300.8,474.1L300.8,474.1z M306.2,475.4
			c-1.3,0.4-2.2,2-3.5,2.2C303.3,476.5,304.8,475.4,306.2,475.4L306.2,475.4z M301.7,482.1v0.2l0,0V482.1L301.7,482.1L301.7,482.1z
			 M302,488.5c0,0.2,0,0.4-0.2,0.7l-2.4-2C300.6,487.1,301.3,487.6,302,488.5L302,488.5z M299.1,485.2c0.2-0.2,0.7-0.2,0.9,0H299.1
			L299.1,485.2z M297.8,483.6c0.4-0.7,0.9-1.5,1.8-1.5c0,0,0,0.2,0.2,0.2C298.9,482.9,298.4,483.4,297.8,483.6L297.8,483.6z
			 M295.3,483.4h-0.4l0.7-0.7C295.8,482.9,295.3,483.2,295.3,483.4L295.3,483.4z M295.5,487.4c1.3-1.5,2.7,0.9,3.1,2
			c1.5,2.2,5.5,4.4,4,7.5c-2,1.8-5.1,0-7.3,1.5c-1.1,0-3.1,0.2-3.8-0.9C292.9,494,294,490.2,295.5,487.4L295.5,487.4z M292.7,489.4
			l0.4-0.9c-0.9,2.4-2,5.1-3.5,7.5C289.1,493.6,291.8,491.6,292.7,489.4L292.7,489.4z M297.3,502c-2,0-5.1,1.3-6.9-0.4
			c0-0.9-0.9-1.3-0.7-2c1.8-0.7,3.1,1.3,4.6,0c2.4,0,4.9-0.2,7.3,0.2c1.1,0.2,2.9-2,3.1,0.2C303.9,503.3,299.7,500.9,297.3,502
			L297.3,502z M303.3,486.7v-0.2h0.2L303.3,486.7L303.3,486.7L303.3,486.7z M303.9,493.3c0,1.1,1.1,1.5,0.4,2.4
			C304.4,495.3,303.7,494.4,303.9,493.3L303.9,493.3z M306.8,499.7l-0.4,0.2c-0.4-0.4-0.2-1.5-0.2-2.2
			C306.8,498.2,307.3,498.9,306.8,499.7L306.8,499.7z M312.1,502.2c0,0.2-0.7,0.2-0.9,0c-3.1-4-4.6-8.2-6.6-12.6h0.4
			C307.7,493.8,309.7,498.2,312.1,502.2L312.1,502.2z M315.9,492.5c-0.2,0-0.2,0.2-0.2,0.4c-3.1,0-5.1-1.8-7.3-3.3v-0.4
			C311.2,489.4,313.4,491.1,315.9,492.5L315.9,492.5z M313.2,478.5c1.3,0.2,1.3,1.8,1.5,2.7c0,2.2-1.3,4.2-3.5,5.1
			c-1.1,0.7-2.9,0.9-4,0.4c2.4,0,5.3-1.1,6.2-3.5L313.2,478.5L313.2,478.5z M311,478.1c0.4,1.5,1.5,2.9,0.9,4.6
			c-1.1,2-3.1,2-5.1,2.4c-0.9,0-1.8-0.2-2.4-0.7c0-0.4,0-0.7-0.4-1.1c0.2-1.3-2.4-2.7-0.4-4C305.3,477.9,309.2,474.3,311,478.1
			L311,478.1z M363.8,470.6c-0.9,1.1,0,2.7-1.1,3.8c0,2-1.5,2.9-2.9,3.5c-12.4,2.7-24.5-1.5-36.5-3.5c-16.8-3.8-36.3-4.6-53.5-0.9
			c-8,1.5-15.9,3.3-23.4,5.5c-4.9,0.7-9.9,1.3-14.6,0c-3.8-1.8-2.2-6.6-3.3-9.9c0.2-2.7-0.7-4.6-0.9-7.3c-0.2-0.9-0.4-2-0.4-2.7
			c1.5,0.2,3.1,1.3,4.9,1.8c8.8,1.8,16.6-1.1,24.8-2.7c7.7-1.8,15.9-3.1,24.1-3.8c9.3,0,19-0.7,27.9,0.9c2.9,0,5.5,0.9,8.2,1.1
			c5.7,0.7,11.3,2.2,17.2,2.7c0.9,0.2,2,0.2,3.1,0.4c9.3,1.5,19.9,4,28.7,0C365.8,463.3,364.3,466.8,363.8,470.6L363.8,470.6z
			 M361,457.7c0,1.8-1.5,1.3-2.2,2h-2.4c-0.4-0.9-0.2-2-0.2-2.9C357.4,456.9,359.4,456.9,361,457.7L361,457.7z M359.9,455.1
			c1.1-1.1-0.2-7.7,2.9-3.5c0,0.9,0,2-0.7,2.7S360.5,455.5,359.9,455.1L359.9,455.1z M368.3,454c-0.9,2-2.4,3.3-4.4,3.5
			c0-2.4,2.4-4.2,1.5-7.1c-1.3-2-4-2.7-6.6-2c-0.9,0.7-0.4,1.8-0.9,2.7l-0.4,3.5c-2,0-2.2-2-2.9-3.3c0-2.2,1.1-4.4,3.3-5.5
			c1.8-0.9,4.4-0.7,6,0.2c1.3,0.2,2.9,0.9,3.5,2.2C368.9,449.6,368.5,452.2,368.3,454L368.3,454z"/>
	</g>
</g>
<g id="Aus_Gov">
	<g>
		<path class="st0" d="M37.1,565.8H22.8l-2,4c-0.7,1.3-0.9,2.4-0.9,3.3c0,1.1,0.4,2,1.3,2.4c0.4,0.2,2,0.7,4,0.7v1.1H11.7v-0.9
			c1.5-0.2,2.7-0.9,3.5-1.8c0.9-1.1,2.2-3.1,3.5-6.2l14.6-32.7H34l14.8,33.6c1.3,3.1,2.7,5.1,3.5,6c0.7,0.7,1.5,0.9,2.9,1.1v1.1
			H35.4v-1.1h0.9c1.5,0,2.7-0.2,3.3-0.7c0.4-0.2,0.7-0.9,0.7-1.3c0-0.4,0-0.7-0.2-1.1c0-0.2-0.4-0.9-0.9-2.2L37.1,565.8z M36,563.6
			l-6.2-14.1l-6.2,14.1H36z"/>
		<path class="st0" d="M82.2,549.3v22.1c0,2.2,0.2,3.5,0.7,4c0.4,0.4,1.3,0.9,2.4,1.1v1.1H73.8v-3.8c-1.3,1.5-2.7,2.9-4,3.5
			c-1.3,0.7-2.9,1.1-4.6,1.1c-1.5,0-3.1-0.4-4.2-1.5s-2-2.2-2.4-3.5s-0.7-3.5-0.7-6.9v-11.3c0-2.2-0.2-3.5-0.7-4
			c-0.4-0.4-1.1-0.9-2.4-1.1V549h11.5v19.2c0,2,0,3.3,0.2,4s0.4,1.1,0.9,1.3s0.9,0.4,1.3,0.4c0.7,0,1.3-0.2,2-0.7
			c0.9-0.4,1.8-1.5,2.9-3.1v-15c0-2.2-0.2-3.5-0.7-4c-0.4-0.4-1.1-0.9-2.4-1.1V549h11.7V549.3z"/>
		<path class="st0" d="M104.1,548.4l0.4,9.7h-1.1c-1.3-2.9-2.4-4.9-3.8-6c-1.3-1.1-2.7-1.5-4-1.5c-0.9,0-1.5,0.2-2.2,0.9
			c-0.7,0.7-0.9,1.1-0.9,2c0,0.4,0.2,1.1,0.7,1.5c0.7,0.9,2.4,2.2,5.3,4.2c2.9,2,4.9,3.8,5.7,5.1s1.3,2.9,1.3,4.6
			c0,1.5-0.4,3.1-1.1,4.6c-0.7,1.5-2,2.7-3.3,3.5c-1.3,0.9-3.1,1.1-4.6,1.1c-1.3,0-3.1-0.4-5.3-1.3c-0.7-0.2-1.1-0.4-1.3-0.4
			c-0.7,0-1.3,0.4-1.8,1.5h-1.1l-0.4-10.2h1.1c0.9,2.7,2.2,4.6,3.8,6c1.5,1.3,3.1,2,4.4,2c0.9,0,1.8-0.2,2.4-0.9
			c0.7-0.7,0.9-1.3,0.9-2.2s-0.2-1.8-0.9-2.4s-2-1.8-4-3.1c-3.1-2.2-5.1-3.8-6-4.9c-1.3-1.5-2-3.5-2-5.5c0-2.2,0.7-4.2,2.2-6
			s3.8-2.7,6.4-2.7c1.5,0,3.1,0.4,4.4,1.1c0.4,0.2,0.9,0.4,1.3,0.4s0.7,0,0.9-0.2c0.2-0.2,0.7-0.7,1.1-1.3h1.3V548.4z"/>
		<path class="st0" d="M118.5,538.9v10.4h6.6v3.1h-6.6v17.5c0,1.5,0,2.7,0.2,3.1c0.2,0.4,0.4,0.9,0.9,1.1c0.4,0.2,0.7,0.4,1.1,0.4
			c1.3,0,2.7-1.1,3.8-3.1l0.9,0.7c-1.5,4-4.2,5.7-8,5.7c-1.8,0-3.3-0.4-4.6-1.5c-1.3-1.1-2-2.2-2.4-3.3c-0.2-0.7-0.2-2.4-0.2-5.5
			v-15.3h-3.8V551c2.4-1.8,4.6-3.8,6.4-5.7c1.8-2,3.3-4.2,4.6-6.6h1.1V538.9z"/>
		<path class="st0" d="M136.6,549.3v6.4c1.8-2.9,3.5-4.9,4.9-5.7c1.3-0.9,2.9-1.3,4-1.3c1.1,0,2,0.4,2.7,1.1s1.1,1.8,1.1,2.9
			c0,1.3-0.2,2.4-0.9,3.1c-0.7,0.7-1.5,0.9-2.4,0.9c-1.1,0-2-0.4-2.9-1.1c-0.9-0.7-1.3-1.1-1.3-1.1c-0.2-0.2-0.4-0.2-0.7-0.2
			c-0.7,0-1.1,0.2-1.8,0.7c-0.9,0.7-1.5,1.8-1.8,2.9c-0.7,2-0.9,4.2-0.9,6.4v6.4v1.8c0,1.1,0,2,0.2,2.2c0.2,0.4,0.7,0.9,1.1,1.1
			c0.4,0.2,1.3,0.4,2.4,0.4v1.1h-15.3v-0.7c1.3,0,2-0.4,2.4-1.1s0.7-2,0.7-4.6V555c0-1.5,0-2.7-0.2-3.1c-0.2-0.7-0.4-0.9-0.9-1.3
			c-0.4-0.4-1.1-0.4-2-0.4V549h11.5V549.3z"/>
		<path class="st0" d="M164.9,573.4c-3.5,3.1-6.6,4.6-9.3,4.6c-1.5,0-2.9-0.4-4-1.5s-1.5-2.4-1.5-4c0-2.2,0.9-4.2,2.9-5.7
			s6-4,12.2-6.9V557c0-2.2-0.2-3.5-0.4-4c-0.2-0.7-0.7-1.1-1.3-1.5c-0.7-0.4-1.3-0.7-2.2-0.7c-1.3,0-2.4,0.2-3.3,0.9
			c-0.4,0.4-0.9,0.9-0.9,1.3c0,0.4,0.2,0.9,0.9,1.5c0.7,0.9,1.1,1.8,1.1,2.4c0,0.9-0.4,1.8-1.1,2.4s-1.8,1.1-2.9,1.1
			c-1.3,0-2.4-0.4-3.1-1.1c-0.7-0.7-1.3-1.8-1.3-2.7c0-1.5,0.7-2.9,1.8-4.2c1.1-1.3,2.7-2.4,4.9-3.1c2-0.7,4.2-1.1,6.4-1.1
			c2.7,0,4.9,0.7,6.4,1.8c1.5,1.1,2.7,2.4,3.1,3.8c0.2,0.9,0.4,2.9,0.4,5.7v11.1c0,1.3,0,2.2,0.2,2.4c0,0.4,0.2,0.7,0.4,0.7
			c0.2,0.2,0.4,0.2,0.7,0.2c0.4,0,1.1-0.4,1.5-1.1l0.9,0.7c-1.1,1.5-2,2.7-3.1,3.3c-1.1,0.7-2.2,1.1-3.8,1.1c-1.5,0-2.9-0.4-3.8-1.1
			S164.9,574.9,164.9,573.4z M164.9,571.1v-9.5c-2.4,1.3-4.2,2.9-5.5,4.6c-0.9,1.1-1.1,2.2-1.1,3.3c0,0.9,0.4,1.8,1.1,2.4
			c0.4,0.4,1.1,0.9,2.2,0.9C162.2,572.7,163.6,572.3,164.9,571.1z"/>
		<path class="st0" d="M188.1,536.4v35.1c0,2,0.2,3.3,0.7,3.8c0.4,0.7,1.3,0.9,2.7,0.9v1.1h-15.3v-0.9c1.3,0,2.2-0.4,2.9-1.1
			c0.4-0.4,0.7-1.8,0.7-3.8v-29.2c0-2-0.2-3.3-0.7-3.8c-0.4-0.7-1.3-0.9-2.7-0.9v-1.1h11.7V536.4z"/>
		<path class="st0" d="M202.3,549.3v22.3c0,2,0.2,3.3,0.7,3.8c0.4,0.7,1.3,0.9,2.7,0.9v1.1h-15.3v-0.9c1.3,0,2.2-0.4,2.9-1.1
			c0.4-0.4,0.7-1.8,0.7-3.8V555c0-2-0.2-3.3-0.7-3.8c-0.4-0.7-1.3-0.9-2.7-0.9v-1.1H202.3L202.3,549.3z M198.1,535.6
			c1.3,0,2.4,0.4,3.3,1.3c0.9,0.9,1.3,2,1.3,3.3s-0.4,2.4-1.3,3.3c-0.9,0.9-2,1.3-3.3,1.3s-2.4-0.4-3.3-1.3s-1.3-2-1.3-3.3
			s0.4-2.4,1.3-3.3C195.6,536,196.7,535.6,198.1,535.6z"/>
		<path class="st0" d="M220.8,573.4c-3.5,3.1-6.6,4.6-9.3,4.6c-1.5,0-2.9-0.4-4-1.5s-1.5-2.4-1.5-4c0-2.2,0.9-4.2,2.9-5.7
			c1.8-1.8,6-4,12.2-6.9V557c0-2.2-0.2-3.5-0.4-4c-0.2-0.7-0.7-1.1-1.3-1.5c-0.7-0.4-1.3-0.7-2.2-0.7c-1.3,0-2.4,0.2-3.3,0.9
			c-0.4,0.4-0.9,0.9-0.9,1.3c0,0.4,0.2,0.9,0.9,1.5c0.7,0.9,1.1,1.8,1.1,2.4c0,0.9-0.4,1.8-1.1,2.4s-1.8,1.1-2.9,1.1
			c-1.3,0-2.4-0.4-3.1-1.1c-0.9-0.7-1.3-1.8-1.3-2.7c0-1.5,0.7-2.9,1.8-4.2c1.1-1.3,2.7-2.4,4.9-3.1c2.2-0.7,4.2-1.1,6.4-1.1
			c2.7,0,4.9,0.7,6.4,1.8c1.5,1.1,2.7,2.4,3.1,3.8c0.2,0.9,0.4,2.9,0.4,5.7v11.1c0,1.3,0,2.2,0.2,2.4c0,0.4,0.2,0.7,0.4,0.7
			c0.2,0.2,0.4,0.2,0.7,0.2c0.4,0,1.1-0.4,1.5-1.1l0.9,0.7c-1.1,1.5-2,2.7-3.1,3.3s-2.2,1.1-3.8,1.1s-2.9-0.4-3.8-1.1
			S221,574.9,220.8,573.4z M220.8,571.1v-9.5c-2.4,1.3-4.2,2.9-5.5,4.6c-0.9,1.1-1.1,2.2-1.1,3.3c0,0.9,0.4,1.8,1.1,2.4
			c0.4,0.4,1.1,0.9,2.2,0.9C218.4,572.7,219.5,572.3,220.8,571.1z"/>
		<path class="st0" d="M244.7,549.3v3.8c1.5-1.5,2.9-2.7,4.2-3.5s2.7-1.1,4.2-1.1c1.8,0,3.3,0.4,4.6,1.5c1.3,1.1,2,2.2,2.4,3.8
			c0.2,1.1,0.4,3.3,0.4,6.6v11.1c0,2.2,0.2,3.5,0.7,4s1.1,0.9,2.4,1.1v1.1h-14.4v-1.1c1.1-0.2,1.8-0.7,2.2-1.3
			c0.2-0.4,0.4-1.8,0.4-3.8v-12.6c0-2.2,0-3.8-0.2-4.4c-0.2-0.7-0.4-1.1-0.9-1.3c-0.4-0.4-0.9-0.4-1.3-0.4c-1.8,0-3.3,1.3-4.9,3.8
			v15c0,2.2,0.2,3.5,0.7,4s1.1,0.9,2.2,1.1v1.1h-14.4v-1.1c1.1-0.2,2-0.4,2.4-1.1c0.4-0.4,0.4-1.8,0.4-4v-15.9c0-2.2-0.2-3.5-0.7-4
			s-1.1-0.9-2.4-1.1v-1.1H244.7z"/>
		<path class="st0" d="M317.4,535.6v14.4h-1.1c-1.3-4-3.3-6.9-6-9.1c-2.7-2-5.7-3.1-8.8-3.1c-3.1,0-5.5,0.9-7.7,2.7
			c-2,1.8-3.5,4.2-4.4,7.3c-0.9,3.1-1.3,6.2-1.3,9.5c0,4,0.4,7.3,1.3,10.4c0.9,2.9,2.4,5.1,4.4,6.6c2,1.3,4.4,2,7.3,2
			c0.9,0,2,0,3.1-0.2c1.1-0.2,2.2-0.4,3.1-0.9v-8.6c0-1.5-0.2-2.7-0.4-3.1c-0.2-0.4-0.7-0.9-1.3-1.3s-1.5-0.7-2.4-0.7H302v-1.1h19.9
			v1.1c-1.5,0-2.7,0.2-3.1,0.7c-0.7,0.2-1.1,0.9-1.3,1.5c-0.2,0.4-0.2,1.3-0.2,2.9v8.6c-2.7,1.1-5.3,2-8.2,2.7
			c-2.9,0.7-5.7,0.9-8.8,0.9c-4,0-7.1-0.4-9.7-1.5s-4.9-2.4-6.9-4.2s-3.5-3.8-4.6-5.7c-1.3-2.9-2.2-6-2.2-9.3
			c0-6.2,2.2-11.3,6.4-15.7c4.4-4.2,9.7-6.4,16.4-6.4c2,0,4,0.2,5.5,0.4c0.9,0.2,2.4,0.7,4.2,1.3c2,0.7,3.1,1.1,3.5,1.1
			c0.7,0,1.1-0.2,1.5-0.7c0.4-0.4,0.9-1.1,1.3-2.4L317.4,535.6L317.4,535.6z"/>
		<path class="st0" d="M335.1,548.4c2.4,0,4.6,0.7,6.9,2c2.2,1.3,3.8,3.1,4.9,5.3c1.1,2.4,1.5,4.9,1.5,7.7c0,4-1.1,7.3-3.1,10.2
			c-2.4,3.3-5.7,4.9-10.2,4.9c-4.2,0-7.5-1.5-9.7-4.4c-2.2-2.9-3.5-6.4-3.5-10.4c0-4,1.1-7.5,3.5-10.6
			C327.8,549.9,331.1,548.4,335.1,548.4z M335.3,550.6c-1.1,0-2,0.4-2.7,1.1c-0.7,0.9-1.3,2.2-1.5,4.6c-0.2,2.2-0.4,5.5-0.4,9.5
			c0,2.2,0.2,4.2,0.4,6c0.2,1.3,0.7,2.4,1.3,3.3s1.5,1.1,2.4,1.1c0.9,0,1.8-0.2,2.2-0.7c0.9-0.7,1.3-1.5,1.5-2.9
			c0.4-2,0.7-5.7,0.7-11.7c0-3.3-0.2-5.7-0.7-7.1c-0.4-1.3-0.9-2.2-1.8-2.9C336.9,550.8,336.2,550.6,335.3,550.6z"/>
		<path class="st0" d="M362.5,578.2l-9.5-21.9c-1.1-2.7-2-4.4-2.7-5.1c-0.4-0.4-1.1-0.9-2-1.1V549h15v1.1c-0.9,0-1.5,0.2-2,0.4
			c-0.4,0.4-0.7,0.9-0.7,1.5s0.4,2.2,1.3,4.2l4.6,10.6l3.8-9.1c1.1-2.7,1.5-4.4,1.5-5.5c0-0.7-0.2-1.1-0.7-1.5
			c-0.4-0.4-1.3-0.7-2.4-0.7V549h9.3v1.1c-0.9,0.2-1.5,0.4-2.2,1.1c-0.7,0.4-1.3,2.2-2.4,4.9l-9.5,22.1L362.5,578.2L362.5,578.2z"/>
		<path class="st0" d="M401.4,562.3h-15.5c0.2,3.8,1.1,6.6,3.1,8.8c1.3,1.8,3.1,2.4,5.1,2.4c1.1,0,2.2-0.4,3.3-1.1
			c0.9-0.7,2-2,3.1-3.5l1.1,0.7c-1.5,3.1-3.3,5.3-5.1,6.6c-1.8,1.3-4,2-6.4,2c-4.2,0-7.3-1.5-9.5-4.9c-1.8-2.7-2.7-5.7-2.7-9.7
			c0-4.6,1.3-8.4,3.8-11.3c2.7-2.9,5.5-4.2,9.1-4.2c2.9,0,5.3,1.1,7.5,3.5C400.3,554.3,401.4,557.7,401.4,562.3z M394.1,560.3
			c0-3.3-0.2-5.5-0.4-6.6c-0.4-1.1-0.9-2.2-1.5-2.7c-0.4-0.4-0.9-0.4-1.8-0.4c-1.1,0-2,0.4-2.7,1.5c-1.1,1.8-1.8,4.2-1.8,7.3v1.1
			h8.2V560.3z"/>
		<path class="st0" d="M413.6,549.3v6.4c1.8-2.9,3.5-4.9,4.9-5.7c1.3-0.9,2.9-1.3,4-1.3c1.1,0,2,0.4,2.7,1.1
			c0.7,0.7,1.1,1.8,1.1,2.9c0,1.3-0.2,2.4-0.9,3.1c-0.7,0.7-1.5,1.1-2.4,1.1c-1.1,0-2-0.4-2.9-1.1s-1.3-1.1-1.3-1.1
			c-0.2-0.2-0.4-0.2-0.7-0.2c-0.7,0-1.1,0.2-1.8,0.7c-0.9,0.7-1.5,1.8-1.8,2.9c-0.7,2-0.9,4.2-0.9,6.4v6.4v1.8c0,1.1,0,2,0.2,2.2
			c0.2,0.4,0.7,0.9,1.1,1.1c0.4,0.2,1.3,0.4,2.4,0.4v1.1h-15.3v-0.9c1.3,0,2-0.4,2.4-1.1c0.4-0.7,0.7-2,0.7-4.6V555
			c0-1.5,0-2.7-0.2-3.1c-0.2-0.7-0.4-0.9-0.9-1.3c-0.4-0.2-1.1-0.4-2-0.4V549h11.5V549.3z"/>
		<path class="st0" d="M437.9,549.3v3.8c1.5-1.5,2.9-2.7,4.2-3.5s2.7-1.1,4.2-1.1c1.8,0,3.3,0.4,4.6,1.5c1.3,1.1,2,2.2,2.4,3.8
			c0.2,1.1,0.4,3.3,0.4,6.6v11.1c0,2.2,0.2,3.5,0.7,4c0.4,0.4,1.1,0.9,2.4,1.1v1.1h-14.4v-1.1c1.1-0.2,1.8-0.7,2.2-1.3
			c0.2-0.4,0.4-1.8,0.4-3.8v-12.6c0-2.2,0-3.8-0.2-4.4c-0.2-0.7-0.4-1.1-0.9-1.3c-0.4-0.4-0.9-0.4-1.3-0.4c-1.8,0-3.3,1.3-4.9,3.8
			v15c0,2.2,0.2,3.5,0.7,4c0.4,0.4,1.1,0.9,2.2,1.1v1.1h-14.4v-1.1c1.1-0.2,2-0.4,2.4-1.1c0.4-0.4,0.4-1.8,0.4-4v-15.9
			c0-2.2-0.2-3.5-0.7-4c-0.4-0.4-1.1-0.9-2.4-1.1v-1.1H437.9z"/>
		<path class="st0" d="M469.3,549.3v3.8c1.5-1.8,3.1-2.9,4.2-3.5c1.3-0.7,2.9-1.1,4.4-1.1c1.8,0,3.3,0.4,4.6,1.3
			c1.3,0.9,2.2,2.2,2.9,4c1.5-1.8,3.1-3.1,4.6-4s3.1-1.1,4.6-1.1c2,0,3.5,0.4,4.6,1.3c1.1,0.9,2,2,2.4,3.3c0.4,1.3,0.7,3.5,0.7,6.6
			v11.5c0,2.2,0.2,3.5,0.7,4c0.4,0.4,1.1,0.9,2.4,1.1v1.1h-14.6v-1.1c1.1,0,2-0.4,2.4-1.3c0.4-0.4,0.4-1.8,0.4-3.8v-12.2
			c0-2.4,0-4.2-0.2-4.9c-0.2-0.7-0.4-1.1-0.9-1.5c-0.4-0.4-0.9-0.4-1.5-0.4c-0.9,0-1.8,0.2-2.7,0.9c-0.9,0.7-1.8,1.5-2.7,2.9v15.3
			c0,2,0.2,3.3,0.4,3.8c0.4,0.7,1.3,1.1,2.7,1.3v1.1h-14.6v-1.1c0.9,0,1.3-0.2,1.8-0.7c0.4-0.4,0.7-0.9,0.9-1.3
			c0.2-0.4,0.2-1.5,0.2-3.3V559c0-2.7,0-4.2-0.2-4.9s-0.4-1.1-1.1-1.5c-0.4-0.4-0.9-0.4-1.5-0.4c-0.9,0-1.5,0.2-2.2,0.7
			c-0.9,0.7-2,1.8-3.1,3.1v15.3c0,2,0.2,3.3,0.7,4s1.1,1.1,2.4,1.1v1.1h-14.6v-0.9c1.1-0.2,2-0.4,2.4-1.1c0.4-0.4,0.4-1.8,0.4-4
			v-15.9c0-2.2-0.2-3.5-0.7-4c-0.4-0.4-1.1-0.9-2.4-1.1v-1.1H469.3z"/>
		<path class="st0" d="M530.1,562.3h-15.5c0.2,3.8,1.1,6.6,3.1,8.8c1.3,1.8,3.1,2.4,5.1,2.4c1.1,0,2.2-0.4,3.3-1.1
			c0.9-0.7,2-2,3.1-3.5l1.1,0.7c-1.5,3.1-3.3,5.3-5.1,6.6c-1.8,1.3-4,2-6.4,2c-4.2,0-7.3-1.5-9.5-4.9c-1.8-2.7-2.7-5.7-2.7-9.7
			c0-4.6,1.3-8.4,3.8-11.3c2.7-2.9,5.5-4.2,9.1-4.2c2.9,0,5.3,1.1,7.5,3.5C528.7,554.3,529.9,557.7,530.1,562.3z M522.6,560.3
			c0-3.3-0.2-5.5-0.4-6.6c-0.4-1.1-0.9-2.2-1.5-2.7c-0.4-0.4-0.9-0.4-1.8-0.4c-1.1,0-2,0.4-2.7,1.5c-1.1,1.8-1.8,4.2-1.8,7.3v1.1
			h8.2V560.3z"/>
		<path class="st0" d="M542,549.3v3.8c1.5-1.5,2.9-2.7,4.2-3.5c1.3-0.9,2.7-1.1,4.2-1.1c1.8,0,3.3,0.4,4.6,1.5
			c1.3,1.1,2,2.2,2.4,3.8c0.2,1.1,0.4,3.3,0.4,6.6v11.1c0,2.2,0.2,3.5,0.7,4s1.1,0.9,2.4,1.1v1.1h-14.4v-1.1
			c1.1-0.2,1.8-0.7,2.2-1.3c0.2-0.4,0.4-1.8,0.4-3.8v-12.6c0-2.2,0-3.8-0.2-4.4c-0.2-0.7-0.4-1.1-0.9-1.3c-0.4-0.4-0.9-0.4-1.3-0.4
			c-1.8,0-3.3,1.3-4.9,3.8v15c0,2.2,0.2,3.5,0.7,4s1.1,0.9,2.2,1.1v1.1h-14.4v-1.1c1.1-0.2,2-0.4,2.4-1.1c0.4-0.4,0.4-1.8,0.4-4
			v-15.9c0-2.2-0.2-3.5-0.7-4c-0.4-0.4-1.1-0.9-2.4-1.1v-1.1H542z"/>
		<path class="st0" d="M573,538.9v10.4h6.6v3.1H573v17.5c0,1.5,0,2.7,0.2,3.1c0.2,0.4,0.4,0.9,0.9,1.1c0.4,0.2,0.7,0.4,1.1,0.4
			c1.3,0,2.7-1.1,3.8-3.1l0.9,0.7c-1.5,4-4.2,5.7-8,5.7c-1.8,0-3.3-0.4-4.6-1.5c-1.3-1.1-2-2.2-2.4-3.3c-0.2-0.7-0.2-2.4-0.2-5.5
			v-15.3h-3.8V551c2.4-1.8,4.6-3.8,6.4-5.7c1.8-2,3.3-4.2,4.6-6.6h1.1V538.9z"/>
	</g>
</g>
</svg>
